<svg xmlns="http://www.w3.org/2000/svg" viewBox="0 0 105.05 105.05"><defs><style>.cls-1{fill:#042354;}.cls-2{fill:#fff;}</style></defs><g id="Capa_2" data-name="Capa 2"><g id="Capa_1-2" data-name="Capa 1"><circle class="cls-1" cx="52.52" cy="52.52" r="52.52"/><path class="cls-2" d="M52.36,75.48H30.61c-4.78,0-7.56-2.8-7.56-7.63q0-12.81,0-25.62c0-4.74,2.76-7.5,7.49-7.52,2.53,0,5.05,0,7.58,0,1,0,1.48-.27,1.64-1.25,1.19-7,4.42-8.17,10.27-7.88,2.58.12,5.16,0,7.74,0A6.77,6.77,0,0,1,64.67,31c1,3.72,1,3.72,4.85,3.72,1.83,0,3.66,0,5.48,0a6.76,6.76,0,0,1,7,7q.06,13.29,0,26.58a6.83,6.83,0,0,1-7.24,7.14C67.29,75.5,59.83,75.48,52.36,75.48Z"/><path class="cls-1" d="M52.42,71q11,0,21.92,0c2.34,0,3.16-.78,3.16-3q0-12.9,0-25.79c0-2.18-.84-3-3-3-3.39,0-6.77,0-10.16,0A2.51,2.51,0,0,1,61.47,37c-.36-1.57-.75-3.13-1.14-4.69a2.56,2.56,0,0,0-2.76-2.18c-3.43,0-6.87,0-10.31,0a2.44,2.44,0,0,0-2.63,2.11c-.34,1.57-.71,3.13-1,4.71a2.49,2.49,0,0,1-2.81,2.25c-3.38-.07-6.77,0-10.15,0-2.28,0-3.07.83-3.07,3.14q0,12.72,0,25.46c0,2.51.75,3.25,3.28,3.25Z"/><path class="cls-2" d="M63.81,55.32a11.29,11.29,0,1,1-11-11.5A11.25,11.25,0,0,1,63.81,55.32Z"/><path class="cls-1" d="M52.53,48.22a6.86,6.86,0,1,0,6.86,6.91A7,7,0,0,0,52.53,48.22Z"/><path class="cls-2" d="M69.55,48.19a11.69,11.69,0,0,1-1.45,0,2.18,2.18,0,0,1,0-4.33,14.92,14.92,0,0,1,2.41,0c1.46.06,2.47,1,2.33,2.29a2.11,2.11,0,0,1-2.36,2.09h-1Z"/></g></g></svg>