<?xml version="1.0" encoding="utf-8"?>
<!-- Generator: Adobe Illustrator 24.0.0, SVG Export Plug-In . SVG Version: 6.00 Build 0)  -->
<svg version="1.1" id="Capa_1" xmlns="http://www.w3.org/2000/svg" xmlns:xlink="http://www.w3.org/1999/xlink" x="0px" y="0px"
	 viewBox="0 0 100 100" style="enable-background:new 0 0 100 100;" xml:space="preserve">
<style type="text/css">
	.st0{fill:none;stroke:#9F42F5;stroke-width:3.2177;stroke-miterlimit:10;}
	.st1{fill:none;stroke:#1499DB;stroke-width:2.5742;stroke-miterlimit:10;}
	.st2{fill:none;stroke:#9F42F5;stroke-width:3.2102;stroke-miterlimit:10;}
	.st3{fill:none;stroke:#1499DB;stroke-width:2.5682;stroke-miterlimit:10;}
	.st4{fill:#042354;}
	.st5{fill:none;stroke:#9F42F5;stroke-width:3.2219;stroke-miterlimit:10;}
	.st6{fill:none;stroke:#1499DB;stroke-width:2.5775;stroke-miterlimit:10;}
	.st7{fill:none;}
	.st8{fill:#383838;}
	.st9{fill:none;stroke:#FFFFFF;stroke-width:3.4545;stroke-miterlimit:10;}
	.st10{fill:#7F32C8;}
	.st11{fill:#FFFFFF;}
</style>
<g>
	<circle class="st8" cx="50" cy="50" r="50"/>
	<g>
		<path class="st11" d="M49.85,71.86c-6.9,0-13.8,0.01-20.71,0c-4.56,0-7.2-2.67-7.2-7.26c0-8.13-0.01-16.26,0-24.39
			c0-4.51,2.63-7.14,7.13-7.16c2.4-0.01,4.81-0.04,7.21,0.02c0.93,0.02,1.41-0.26,1.57-1.19c1.13-6.65,4.2-7.77,9.78-7.5
			c2.45,0.12,4.91,0,7.36,0.03c3.36,0.03,5.71,1.88,6.57,5.11c0.94,3.54,0.94,3.54,4.62,3.54c1.74,0,3.48-0.03,5.21,0.01
			c3.93,0.08,6.64,2.78,6.66,6.7c0.03,8.44,0.03,16.87,0,25.31c-0.01,4.06-2.79,6.78-6.89,6.79C64.06,71.87,56.95,71.86,49.85,71.86
			z"/>
		<path class="st8" d="M49.91,67.59c6.96,0,13.91,0,20.87,0c2.23,0,3-0.74,3-2.9c0.01-8.18,0.01-16.37,0-24.55
			c0-2.08-0.79-2.86-2.89-2.87c-3.22-0.02-6.44-0.05-9.67,0.02c-1.56,0.03-2.38-0.65-2.71-2.11c-0.34-1.49-0.72-2.98-1.08-4.46
			c-0.34-1.37-1.18-2.08-2.63-2.07c-3.27,0.02-6.55,0-9.82,0.01c-1.36,0-2.21,0.65-2.5,2c-0.32,1.5-0.68,2.99-1,4.48
			c-0.31,1.45-1.09,2.18-2.67,2.14c-3.22-0.07-6.44-0.03-9.67-0.02c-2.17,0.01-2.92,0.79-2.93,2.98c-0.01,8.08,0,16.16,0,24.24
			c0,2.39,0.71,3.09,3.12,3.09C36.2,67.59,43.05,67.59,49.91,67.59z"/>
		<path class="st11" d="M60.75,52.66c-0.14,5.96-4.97,10.64-10.88,10.54c-6.01-0.1-10.74-4.99-10.6-10.97
			c0.13-6.03,4.98-10.65,11.04-10.51C56.23,41.85,60.88,46.72,60.75,52.66z"/>
		<path class="st8" d="M50.01,45.9c-3.48-0.02-6.57,3.08-6.54,6.56c0.03,3.46,2.98,6.43,6.45,6.49c3.48,0.07,6.58-2.97,6.62-6.48
			C56.57,49,53.52,45.92,50.01,45.9z"/>
		<path class="st11" d="M66.21,45.88c-0.46,0-0.93,0.05-1.38-0.01c-1.19-0.16-1.82-0.87-1.81-2.07c0.01-1.21,0.66-1.91,1.84-2.05
			c0.76-0.08,1.53-0.06,2.3-0.03c1.39,0.06,2.35,0.97,2.22,2.18c-0.14,1.3-0.89,2.02-2.25,1.99c-0.31-0.01-0.61,0-0.92,0
			C66.21,45.89,66.21,45.88,66.21,45.88z"/>
	</g>
</g>
</svg>
