<svg xmlns="http://www.w3.org/2000/svg" viewBox="0 0 105.05 105.05"><defs><style>.cls-1{fill:#042354;}.cls-2{fill:#f40000;}</style></defs><g id="Capa_2" data-name="Capa 2"><g id="Capa_1-2" data-name="Capa 1"><circle class="cls-1" cx="52.52" cy="52.52" r="52.52"/><path class="cls-2" d="M17.91,53a32,32,0,0,1,.74-3.45A21.67,21.67,0,0,1,31.21,35.82,24.77,24.77,0,0,1,40.52,34c6.3-.2,12.6-.4,18.9-.44A30.47,30.47,0,0,1,70.17,35c7,2.51,12.51,6.94,15.62,14.28,2.13,5,1.79,9.85-1.5,14.31a4.69,4.69,0,0,1-6.21,1.28L74.93,63c-2.15-1.26-4.32-2.5-6.47-3.76a6.16,6.16,0,0,1-3.09-5.64c0-1.59.09-3.2,0-4.78a2.75,2.75,0,0,0-2.13-2.65,46.37,46.37,0,0,0-14.07-1.41,36.24,36.24,0,0,0-7.85,1.28,3.66,3.66,0,0,0-2.42,3.29c0,1.53-.09,3-.12,4.58a5.58,5.58,0,0,1-3.36,5.15c-3.59,1.45-7.21,2.85-10.81,4.3a4,4,0,0,1-5.43-2.61c-.4-1.44-.73-2.89-1.09-4.33l-.14-.56Z"/><path class="cls-2" d="M48,56.25c0-1.63,0-3.25,0-4.87a2.33,2.33,0,0,1,2.43-2.63c1.39,0,2.79,0,4.18,0a2.35,2.35,0,0,1,2.44,2.63c0,3.32,0,6.63,0,9.95,0,.73.24.93.87.91a3.38,3.38,0,0,1,1.45.19,1.53,1.53,0,0,1,.71,2.16,6.59,6.59,0,0,1-.51.85L54.33,73c-1.2,1.71-2.46,1.71-3.65,0q-2.66-3.8-5.3-7.61a5.44,5.44,0,0,1-.44-.73,1.57,1.57,0,0,1,1.15-2.41,6.82,6.82,0,0,1,1.28,0c.49,0,.68-.19.67-.72C48,59.73,48,58,48,56.25Z"/></g></g></svg>