<svg xmlns="http://www.w3.org/2000/svg" viewBox="0 0 92.38 81.59"><defs><style>.cls-1{fill:#042354;}</style></defs><g id="Capa_2" data-name="Capa 2"><g id="Capa_1-2" data-name="Capa 1"><path class="cls-1" d="M43.93,81.59c2.61-.52,5.25-.91,7.82-1.6a39.16,39.16,0,0,0,17.41-10.1c2.3-2.25,2.48-5,.56-6.9s-4.45-1.74-6.91.51C53.26,72.24,42.24,75,30,70.58S10.73,56.85,9.18,43.86C7.25,27.73,18.82,12.55,35,9.53a31.76,31.76,0,0,1,36.2,22.86,14.16,14.16,0,0,1,.25,1.68c-2.62,0-5.1-.09-7.57,0-.86.05-2.14.49-2.41,1.11a3.35,3.35,0,0,0,.4,2.82c4.22,5.81,8.54,11.55,12.88,17.28,1.32,1.75,2.85,1.75,4.16,0,4.32-5.73,8.65-11.47,12.87-17.28a3.4,3.4,0,0,0,.45-2.8c-.27-.63-1.55-1.1-2.4-1.14-2.93-.14-5.87-.06-9-.06-.36-1.43-.66-2.81-1-4.18a40.49,40.49,0,0,0-35-29.6A4.37,4.37,0,0,1,43.93,0H37.26a4.66,4.66,0,0,1-.89.3C20,2.49,8.68,11.37,2.61,26.69,1.24,30.15.85,34,0,37.66v6.27c.11.5.26,1,.33,1.5C2.53,61.23,11,72.38,25.62,78.56c3.66,1.54,7.75,2,11.64,3Z"/></g></g></svg>