<svg xmlns="http://www.w3.org/2000/svg" viewBox="0 0 92.38 81.59"><defs><style>.cls-1{fill:#042354;}</style></defs><g id="Capa_2" data-name="Capa 2"><g id="Capa_1-2" data-name="Capa 1"><path class="cls-1" d="M48.44,81.59c-2.6-.52-5.25-.91-7.81-1.6a39.24,39.24,0,0,1-17.42-10.1c-2.29-2.25-2.48-5-.56-6.9s4.46-1.74,6.92.51c9.54,8.74,20.57,11.5,32.79,7.08S81.64,56.85,83.2,43.86c1.93-16.13-9.65-31.31-25.84-34.33a31.77,31.77,0,0,0-36.2,22.86,16.59,16.59,0,0,0-.25,1.68c2.62,0,5.11-.09,7.57,0,.87.05,2.15.49,2.42,1.11a3.35,3.35,0,0,1-.41,2.82C26.28,43.86,22,49.6,17.62,55.33c-1.32,1.75-2.85,1.75-4.16,0C9.14,49.62,4.81,43.88.59,38.07a3.36,3.36,0,0,1-.45-2.8c.27-.63,1.54-1.1,2.39-1.14,2.94-.14,5.88-.06,9-.06.35-1.43.66-2.81,1-4.18a40.49,40.49,0,0,1,35-29.6,4.29,4.29,0,0,0,.9-.29h6.67A5.18,5.18,0,0,0,56,.3C72.42,2.49,83.69,11.37,89.76,26.69c1.37,3.46,1.77,7.3,2.62,11v6.27c-.11.5-.26,1-.33,1.5-2.2,15.8-10.62,26.95-25.29,33.13-3.66,1.54-7.75,2-11.65,3Z"/></g></g></svg>