<svg width="80" height="80" viewBox="0 0 80 80" fill="none" xmlns="http://www.w3.org/2000/svg">
<path d="M40 80C62.0914 80 80 62.0914 80 40C80 17.9086 62.0914 0 40 0C17.9086 0 0 17.9086 0 40C0 62.0914 17.9086 80 40 80Z" fill="black"/>
<path d="M58.2675 45.8613C58.895 45.1608 59.2773 44.2362 59.2773 43.2246C59.2773 41.044 57.5028 39.2695 55.3223 39.2695H47.6459C48.4062 36.9624 48.7305 33.9012 48.7305 32.589V31.2715C48.7305 28.3641 46.3645 25.998 43.457 25.998H42.1387C41.534 25.998 41.0066 26.4094 40.8599 26.9965L40.1418 29.8696C39.1354 33.8933 35.9406 38.3326 32.6342 39.1395C32.055 37.6734 30.625 36.6328 28.9551 36.6328H21.0449C20.3172 36.6328 19.7266 37.2234 19.7266 37.9512V61.6816C19.7266 62.4094 20.3172 63 21.0449 63H28.9551C30.5274 63 31.888 62.078 32.5252 60.7456L37.0551 62.2556C38.536 62.7495 40.0794 63 41.6412 63H52.6855C54.8661 63 56.6406 61.2255 56.6406 59.0449C56.6406 58.5308 56.5422 58.0386 56.3629 57.5877C58.0398 57.1298 59.2773 55.5926 59.2773 53.7715C59.2773 52.7599 58.895 51.8353 58.2675 51.1348C58.895 50.4343 59.2773 49.5097 59.2773 48.498C59.2773 47.4864 58.895 46.5618 58.2675 45.8613ZM30.2734 59.0449C30.2734 59.7718 29.6819 60.3633 28.9551 60.3633H22.3633V39.2695H28.9551C29.6819 39.2695 30.2734 39.861 30.2734 40.5879V59.0449ZM52.6855 47.1797H55.3223C56.0491 47.1797 56.6406 47.7712 56.6406 48.498C56.6406 49.2249 56.0491 49.8164 55.3223 49.8164H52.6855C51.9578 49.8164 51.3672 50.407 51.3672 51.1348C51.3672 51.8625 51.9578 52.4531 52.6855 52.4531H55.3223C56.0491 52.4531 56.6406 53.0446 56.6406 53.7715C56.6406 54.4983 56.0491 55.0898 55.3223 55.0898H52.6855C51.9578 55.0898 51.3672 55.6805 51.3672 56.4082C51.3672 57.1359 51.9578 57.7266 52.6855 57.7266C53.4124 57.7266 54.0039 58.3181 54.0039 59.0449C54.0039 59.7718 53.4124 60.3633 52.6855 60.3633H41.6412C40.3633 60.3633 39.1003 60.1585 37.8883 59.7542L32.9102 58.0948V41.7814C34.9782 41.3886 37.0023 40.079 38.8296 37.9354C40.6138 35.8418 42.0604 33.0662 42.6994 30.5095L43.1679 28.6348H43.457C44.9107 28.6348 46.0938 29.8178 46.0938 31.2715V32.589C46.0938 34.3591 45.54 37.7543 44.8316 39.2695H42.1387C41.4109 39.2695 40.8203 39.8602 40.8203 40.5879C40.8203 41.3156 41.4109 41.9062 42.1387 41.9062H55.3223C56.0491 41.9062 56.6406 42.4978 56.6406 43.2246C56.6406 43.9515 56.0491 44.543 55.3223 44.543H52.6855C51.9578 44.543 51.3672 45.1336 51.3672 45.8613C51.3672 46.5891 51.9578 47.1797 52.6855 47.1797Z" fill="#D2EBEB"/>
<path d="M26.3184 57.7266C27.0465 57.7266 27.6367 57.1363 27.6367 56.4082C27.6367 55.6801 27.0465 55.0898 26.3184 55.0898C25.5902 55.0898 25 55.6801 25 56.4082C25 57.1363 25.5902 57.7266 26.3184 57.7266Z" fill="#D2EBEB"/>
<path d="M44.7715 18C44.0434 18 43.4531 18.5903 43.4531 19.3184V22.043C43.4531 22.7711 44.0434 23.3613 44.7715 23.3613C45.4996 23.3613 46.0898 22.7711 46.0898 22.043V19.3184C46.0898 18.5903 45.4996 18 44.7715 18Z" fill="#D2EBEB"/>
<path d="M39.1814 23.8138L37.317 21.9494C36.8022 21.4345 35.9674 21.4345 35.4526 21.9494C34.9377 22.4642 34.9377 23.2989 35.4526 23.8138L37.317 25.6782C37.8318 26.193 38.6666 26.1931 39.1814 25.6782C39.6963 25.1634 39.6963 24.3287 39.1814 23.8138Z" fill="#D2EBEB"/>
<path d="M54.0955 21.9494C53.5807 21.4345 52.7459 21.4345 52.231 21.9494L50.3666 23.8137C49.8518 24.3286 49.8518 25.1633 50.3666 25.6781C50.8814 26.193 51.7162 26.1931 52.231 25.6782L54.0955 23.8138C54.6103 23.2989 54.6103 22.4642 54.0955 21.9494Z" fill="#D2EBEB"/>
</svg>
