<?xml version="1.0" encoding="utf-8"?>
<!-- Generator: Adobe Illustrator 24.0.0, SVG Export Plug-In . SVG Version: 6.00 Build 0)  -->
<svg version="1.1" id="Capa_1" xmlns="http://www.w3.org/2000/svg" xmlns:xlink="http://www.w3.org/1999/xlink" x="0px" y="0px"
	 viewBox="0 0 115.79 115.79" style="enable-background:new 0 0 115.79 115.79;" xml:space="preserve">
<style type="text/css">
	.st0{fill:none;stroke:#9F42F5;stroke-width:3.2177;stroke-miterlimit:10;}
	.st1{fill:none;stroke:#1499DB;stroke-width:2.5742;stroke-miterlimit:10;}
	.st2{fill:none;stroke:#9F42F5;stroke-width:3.2102;stroke-miterlimit:10;}
	.st3{fill:none;stroke:#1499DB;stroke-width:2.5682;stroke-miterlimit:10;}
	.st4{fill:#042354;}
	.st5{fill:none;stroke:#9F42F5;stroke-width:3.2219;stroke-miterlimit:10;}
	.st6{fill:none;stroke:#1499DB;stroke-width:2.5775;stroke-miterlimit:10;}
	.st7{fill:none;}
	.st8{fill:#383838;}
	.st9{fill:none;stroke:#FFFFFF;stroke-width:4;stroke-miterlimit:10;}
	.st10{fill:#7F32C8;}
	.st11{fill:#FFFFFF;}
</style>
<g>
	<path class="st8" d="M115.79,57.99c-0.03,32.17-26.04,57.93-58.39,57.81C25.75,115.68-0.03,89.64,0,57.81
		C0.03,25.85,26.03-0.07,58,0C90.04,0.07,115.82,25.94,115.79,57.99z"/>
	<path class="st9" d="M45.34,54.77c1.11-1.01,1.93-1.74,2.73-2.5c4.35-4.1,4.42-6.41,0.22-10.72c-2.02-2.07-4.19-4-6.23-6.05
		c-2.2-2.22-4.53-2.17-7.14-0.78c-6.38,3.42-9.54,10.35-7.07,17.61c6.22,18.31,18.63,30.6,37.14,36.41
		c6.68,2.1,12.92-1.07,16.63-8.21c2.79-5.38-2.55-7.38-4.89-10.59c-0.32-0.44-0.77-0.79-1.16-1.17c-5.32-5.11-6.46-5.21-11.98-0.34
		c-1.84,1.63-3.32,1.9-5.44,0.46C52.77,65.26,48.53,60.7,45.34,54.77z"/>
	<path class="st10" d="M58.48,30.75c-0.19,0.51-0.37,1.02-0.56,1.53c1.44,0.83,2.8,1.96,4.35,2.43c10.48,3.2,17.07,10,19.85,20.62
		c0.27,1.04,1.57,1.81,2.39,2.7c0.33-1.13,1.15-2.39,0.91-3.38C82.32,42.03,74.27,34.2,61.84,30.78
		C60.79,30.5,59.6,30.75,58.48,30.75z"/>
	<path class="st10" d="M75.17,56.73c-0.23-6.11-8.98-15.13-14.55-15.44c-0.9-0.05-1.85,0.69-2.78,1.07c0.5,0.74,0.87,1.96,1.52,2.14
		c6.58,1.81,10.57,6.04,12.48,12.51c0.19,0.65,1.49,1.47,2.12,1.36C74.57,58.26,74.97,57.03,75.17,56.73z"/>
	<path class="st11" d="M58.48,30.75c1.12,0,2.32-0.25,3.36,0.04c12.43,3.42,20.49,11.25,23.57,23.87c0.24,0.99-0.58,2.25-0.91,3.38
		c-0.82-0.89-2.12-1.66-2.39-2.7c-2.78-10.62-9.37-17.42-19.85-20.62c-1.55-0.47-2.9-1.6-4.35-2.43
		C58.1,31.77,58.29,31.26,58.48,30.75z"/>
	<path class="st11" d="M75.17,56.73c-0.2,0.3-0.6,1.53-1.21,1.63c-0.63,0.11-1.93-0.71-2.12-1.36c-1.91-6.46-5.91-10.69-12.48-12.51
		c-0.65-0.18-1.02-1.4-1.52-2.14c0.93-0.38,1.88-1.12,2.78-1.07C66.19,41.6,74.94,50.62,75.17,56.73z"/>
</g>
</svg>
