<svg xmlns="http://www.w3.org/2000/svg" viewBox="0 0 115.79 115.79"><defs><style>.cls-1{fill:#042354;}.cls-2{fill:none;stroke:#fff;stroke-miterlimit:10;stroke-width:4px;}.cls-3{fill:#7f32c8;}.cls-4{fill:#fff;}</style></defs><g id="Capa_2" data-name="Capa 2"><g id="Capa_1-2" data-name="Capa 1"><path class="cls-1" d="M115.79,58a57.82,57.82,0,0,1-58.39,57.8C25.75,115.68,0,89.64,0,57.81A57.9,57.9,0,1,1,115.79,58Z"/><path class="cls-2" d="M45.34,54.77c1.11-1,1.93-1.75,2.73-2.5,4.34-4.1,4.42-6.41.22-10.72-2-2.07-4.19-4-6.23-6-2.2-2.22-4.53-2.18-7.15-.78a14.27,14.27,0,0,0-7.07,17.62C34.06,70.65,46.47,82.94,65,88.75c6.68,2.1,12.93-1.07,16.63-8.21,2.78-5.38-2.55-7.38-4.9-10.59a9.23,9.23,0,0,0-1.16-1.18c-5.32-5.11-6.46-5.21-12-.34-1.85,1.63-3.33,1.9-5.44.47A39.08,39.08,0,0,1,45.34,54.77Z"/><path class="cls-3" d="M58.48,30.75l-.56,1.53a23.35,23.35,0,0,0,4.35,2.43c10.48,3.2,17.07,10,19.85,20.62.27,1,1.56,1.81,2.38,2.7.33-1.13,1.15-2.38.91-3.38C82.32,42,74.27,34.2,61.84,30.78A13.46,13.46,0,0,0,58.48,30.75Z"/><path class="cls-3" d="M75.17,56.73c-.23-6.11-9-15.13-14.55-15.44-.9,0-1.85.69-2.78,1.07.5.74.87,2,1.52,2.14,6.57,1.81,10.57,6,12.48,12.5A2.55,2.55,0,0,0,74,58.36C74.57,58.26,75,57,75.17,56.73Z"/><path class="cls-4" d="M58.48,30.75a13.46,13.46,0,0,1,3.36,0C74.27,34.2,82.32,42,85.41,54.65c.24,1-.58,2.25-.91,3.38-.82-.89-2.11-1.66-2.38-2.7-2.78-10.62-9.37-17.42-19.85-20.62a23.35,23.35,0,0,1-4.35-2.43Z"/><path class="cls-4" d="M75.17,56.73c-.2.3-.6,1.53-1.2,1.63A2.55,2.55,0,0,1,71.84,57c-1.91-6.46-5.91-10.69-12.48-12.5-.65-.18-1-1.4-1.52-2.14.93-.38,1.88-1.12,2.78-1.07C66.19,41.6,74.94,50.62,75.17,56.73Z"/></g></g></svg>