<svg xmlns="http://www.w3.org/2000/svg" viewBox="0 0 70.91 108.89"><defs><style>.cls-1{fill:#042354;}.cls-2{fill:#fff;}</style></defs><g id="Capa_2" data-name="Capa 2"><g id="Capa_1-2" data-name="Capa 1"><path class="cls-1" d="M55.49,60.88H15.44a3.16,3.16,0,0,1-2.86-1.62,2.56,2.56,0,0,1,.2-2.7l7.79-11a3.22,3.22,0,0,1,2.66-1.3H47.7a3.24,3.24,0,0,1,2.67,1.3l7.79,11a2.58,2.58,0,0,1,.2,2.7A3.17,3.17,0,0,1,55.49,60.88ZM16,57.62H54.9L47.76,47.56H23.17Z"/><path class="cls-1" d="M53.15,108.89H16.66a7.22,7.22,0,0,1-7.21-7.2,25.24,25.24,0,0,1,7.82-18.3l.49-.48H52l.49.48a25.24,25.24,0,0,1,7.82,18.3A7.21,7.21,0,0,1,53.15,108.89Zm-34-22.59a21.85,21.85,0,0,0-6.3,15.39,3.83,3.83,0,0,0,3.82,3.82H53.15A3.82,3.82,0,0,0,57,101.69a21.85,21.85,0,0,0-6.3-15.39Z"/><path class="cls-1" d="M52.71,86.3H17l-4.8-26.88a1.58,1.58,0,0,1,1.56-1.86H57a1.67,1.67,0,0,1,1.63,2ZM19.86,82.91H50l4.9-22h-39Z"/><path class="cls-1" d="M13.93,56.19a1.66,1.66,0,0,1,1.05.37,1.69,1.69,0,0,1,.28,2.37L4.83,72.19,3.38,89.46A1.69,1.69,0,1,1,0,89.17L1.5,71.41a1.69,1.69,0,0,1,.36-.91L12.6,56.84A1.7,1.7,0,0,1,13.93,56.19Z"/><path class="cls-1" d="M2.42,79a1.66,1.66,0,0,1,1.12.43l3.4,3A1.69,1.69,0,0,1,4.7,85L1.29,82a1.7,1.7,0,0,1,1.13-3Z"/><path class="cls-1" d="M57,56.19a1.7,1.7,0,0,1,1.33.65L69.06,70.5a1.76,1.76,0,0,1,.35.91L70.9,89.17a1.69,1.69,0,1,1-3.37.29L66.08,72.19,55.65,58.93a1.69,1.69,0,0,1,.28-2.37A1.66,1.66,0,0,1,57,56.19Z"/><path class="cls-1" d="M68.49,79a1.7,1.7,0,0,1,1.13,3l-3.4,3A1.69,1.69,0,1,1,64,82.45l3.4-3A1.7,1.7,0,0,1,68.49,79Z"/><polygon class="cls-1" points="19.39 62.49 21.67 82.26 22.06 85.65 22.65 90.7 47.57 90.7 48.29 85.65 48.78 82.26 51.63 62.49 19.39 62.49"/><polygon class="cls-2" points="44.61 85.65 44.38 87.57 26 87.57 25.81 85.65 25.48 82.26 23.86 65.62 47.05 65.62 45.02 82.26 44.61 85.65"/><path class="cls-1" d="M28.46,76.7a.92.92,0,0,1-.89-.73L25.9,67.83a.91.91,0,0,1,1.78-.36l1.67,8.14a.91.91,0,0,1-.71,1.07Z"/><path class="cls-1" d="M30.72,75.64a.92.92,0,0,1-.89-.73l-1.16-5.66a.9.9,0,0,1,.7-1.07.91.91,0,0,1,1.08.71l1.16,5.66a.91.91,0,0,1-.71,1.07Z"/><path class="cls-1" d="M21.52,21.79l-1.86-1.95a3.11,3.11,0,0,1-.34-.39L11.12,7.29a2.88,2.88,0,0,1-.17-3A3.41,3.41,0,0,1,14,2.57V6.11a.46.46,0,0,0,.14-.22.71.71,0,0,0-.07-.6l6.79,10.06a10.91,10.91,0,0,1,8.46-4H40.85a10.91,10.91,0,0,1,8.46,4L56.1,5.29a.71.71,0,0,0-.07.6.46.46,0,0,0,.14.22V2.57a3.39,3.39,0,0,1,3,1.74,2.86,2.86,0,0,1-.16,3l-8.2,12.16a3,3,0,0,1-.33.38l-1.86,2-1.07-2.46a7.35,7.35,0,0,0-6.74-4.43H29.32a7.35,7.35,0,0,0-6.74,4.43Zm26.37-4.34h0Zm-25.62,0h0Z"/><path class="cls-1" d="M36.12,46.53H34c-2.83,0-6.57-1.82-10-4.88-1.69-1.51-5.63-5.47-5.63-9.54v-10a10.92,10.92,0,0,1,.89-4.32l3.27,1.42a7.42,7.42,0,0,0-.6,2.9V32.11c0,1.77,1.75,4.47,4.44,6.88s5.73,4,7.62,4h2.08c1.9,0,5-1.6,7.63-4s4.43-5.11,4.43-6.88v-10a7.41,7.41,0,0,0-.59-2.9l3.27-1.42a10.92,10.92,0,0,1,.89,4.32V32.11C51.75,38.34,41.92,46.53,36.12,46.53Z"/><path class="cls-1" d="M17.16,33.89a4.82,4.82,0,0,1-4.82-4.82v-7.2a4.82,4.82,0,0,1,9.64,0v7.2A4.82,4.82,0,0,1,17.16,33.89Zm0-13.28a1.27,1.27,0,0,0-1.26,1.26v7.2a1.27,1.27,0,0,0,1.26,1.26h0a1.26,1.26,0,0,0,1.26-1.26v-7.2A1.26,1.26,0,0,0,17.16,20.61Z"/><path class="cls-1" d="M53,33.89a4.83,4.83,0,0,1-4.83-4.82v-7.2a4.83,4.83,0,0,1,9.65,0v7.2A4.82,4.82,0,0,1,53,33.89Zm0-13.28a1.26,1.26,0,0,0-1.26,1.26v7.2a1.26,1.26,0,1,0,2.52,0v-7.2A1.27,1.27,0,0,0,53,20.61Z"/><path class="cls-1" d="M29,33a3.46,3.46,0,1,1,3.46-3.46A3.46,3.46,0,0,1,29,33Zm0-4.69a1.23,1.23,0,1,0,1.23,1.23A1.23,1.23,0,0,0,29,28.3Z"/><path class="cls-1" d="M41.22,33a3.46,3.46,0,1,1,3.46-3.46A3.46,3.46,0,0,1,41.22,33Zm0-4.69a1.23,1.23,0,1,0,1.23,1.23A1.23,1.23,0,0,0,41.22,28.3Z"/><path class="cls-1" d="M35.05,40.18h-.32a6.63,6.63,0,0,1-4.49-2.37A1.78,1.78,0,0,1,33,35.57a3.15,3.15,0,0,0,1.94,1,3.27,3.27,0,0,0,2.33-1.19A1.78,1.78,0,1,1,39.8,38,6.66,6.66,0,0,1,35.05,40.18Z"/><path class="cls-1" d="M34.49,10A114.45,114.45,0,0,1,18.21,9c-5.66-.85-8-2-8-4s2.3-3.11,8-4A114.6,114.6,0,0,1,34.49,0,114.55,114.55,0,0,1,50.76,1c5.66.86,8,2,8,4s-2.31,3.11-8,4A114.4,114.4,0,0,1,34.49,10ZM14.44,5c2.73.85,9.45,1.88,20.05,1.88s17.32-1,20-1.88c-2.72-.85-9.45-1.88-20-1.88S17.17,4.14,14.44,5Z"/></g></g></svg>