<svg xmlns="http://www.w3.org/2000/svg" viewBox="0 0 70.91 109.75"><defs><style>.cls-1{fill:#042354;}.cls-2{fill:#fff;}</style></defs><g id="Capa_2" data-name="Capa 2"><g id="Capa_1-2" data-name="Capa 1"><path class="cls-1" d="M35.43,38.06h-.38a8.2,8.2,0,0,1-5.46-2.88,1.69,1.69,0,0,1,2.64-2.12,4.74,4.74,0,0,0,3,1.62,4.9,4.9,0,0,0,3.57-1.75,1.69,1.69,0,1,1,2.4,2.39A8.21,8.21,0,0,1,35.43,38.06Z"/><path class="cls-1" d="M55.5,61.74h-40a3.16,3.16,0,0,1-2.86-1.63,2.54,2.54,0,0,1,.2-2.69l7.79-11a3.24,3.24,0,0,1,2.66-1.29H47.71a3.26,3.26,0,0,1,2.67,1.29l7.79,11a2.57,2.57,0,0,1,.2,2.69A3.16,3.16,0,0,1,55.5,61.74ZM16,58.48H54.92L47.77,48.41H23.18Z"/><path class="cls-1" d="M22.59,18.26,20.83,16.4a2.38,2.38,0,0,1-.32-.38L12.72,4.47a2.71,2.71,0,0,1-.16-2.82A3.22,3.22,0,0,1,15.45,0H55.5a3.21,3.21,0,0,1,2.89,1.65,2.68,2.68,0,0,1-.15,2.82h0L50.45,16a2.33,2.33,0,0,1-.31.37l-1.77,1.86-1-2.35A7,7,0,0,0,41,11.69H30a7,7,0,0,0-6.4,4.21Zm.72-4.13ZM30,8.31H41a10.34,10.34,0,0,1,8,3.83l5.9-8.76H16.07L22,12.14A10.33,10.33,0,0,1,30,8.31ZM55.43,2.58Z"/><path class="cls-1" d="M36.47,47h-2c-5.5,0-14.84-7.79-14.84-13.7V18.66A10.36,10.36,0,0,1,30,8.31H41a10.34,10.34,0,0,1,9.51,6.25h0a10.3,10.3,0,0,1,.84,4.1V33.25C51.3,39.16,42,47,36.47,47ZM30,11.69a7,7,0,0,0-7,7V33.25c0,1.68,1.65,4.25,4.21,6.54s5.44,3.77,7.24,3.77h2c1.8,0,4.71-1.51,7.23-3.77s4.22-4.86,4.22-6.54V18.66a6.93,6.93,0,0,0-.57-2.76h0A7,7,0,0,0,41,11.69Z"/><path class="cls-1" d="M18.46,34.94a4.58,4.58,0,0,1-4.58-4.58V23.53a4.58,4.58,0,1,1,9.16,0v6.83A4.59,4.59,0,0,1,18.46,34.94Zm0-12.61a1.2,1.2,0,0,0-1.2,1.2v6.83a1.2,1.2,0,1,0,2.39,0V23.53A1.19,1.19,0,0,0,18.46,22.33Z"/><path class="cls-1" d="M52.5,34.94a4.58,4.58,0,0,1-4.58-4.58V23.53a4.58,4.58,0,1,1,9.16,0v6.83A4.59,4.59,0,0,1,52.5,34.94Zm0-12.61a1.2,1.2,0,0,0-1.2,1.2v6.83a1.2,1.2,0,1,0,2.39,0V23.53A1.19,1.19,0,0,0,52.5,22.33Z"/><path class="cls-1" d="M53.16,109.75H16.67a7.22,7.22,0,0,1-7.21-7.2,25.24,25.24,0,0,1,7.82-18.31l.49-.47H52.05l.49.47a25.24,25.24,0,0,1,7.82,18.31A7.21,7.21,0,0,1,53.16,109.75Zm-34-22.59a21.81,21.81,0,0,0-6.3,15.39,3.82,3.82,0,0,0,3.82,3.81H53.16A3.82,3.82,0,0,0,57,102.55a21.81,21.81,0,0,0-6.3-15.39Z"/><path class="cls-1" d="M52.72,87.16H17L11.91,58.42H59.14ZM19.87,83.77H50l4.9-22H16Z"/><path class="cls-1" d="M57,61.59a1.65,1.65,0,0,1-1-.36,1.7,1.7,0,0,1-.28-2.38L66.08,45.59l1.45-17.26a1.69,1.69,0,0,1,3.37.29L69.41,46.38a1.76,1.76,0,0,1-.35.91L58.31,61A1.69,1.69,0,0,1,57,61.59Z"/><path class="cls-1" d="M68.49,38.77a1.74,1.74,0,0,1-1.12-.42l-3.4-3a1.7,1.7,0,0,1,2.25-2.54l3.4,3a1.69,1.69,0,0,1,.14,2.39A1.67,1.67,0,0,1,68.49,38.77Z"/><path class="cls-1" d="M13.93,61.59A1.69,1.69,0,0,1,12.6,61L1.86,47.29a1.69,1.69,0,0,1-.36-.91L0,28.62a1.69,1.69,0,1,1,3.37-.29L4.83,45.59,15.26,58.85A1.7,1.7,0,0,1,15,61.23,1.65,1.65,0,0,1,13.93,61.59Z"/><path class="cls-1" d="M2.42,38.77a1.67,1.67,0,0,1-1.27-.57,1.69,1.69,0,0,1,.14-2.39l3.41-3a1.69,1.69,0,0,1,2.24,2.54l-3.4,3A1.7,1.7,0,0,1,2.42,38.77Z"/><path class="cls-1" d="M33.12,26.64a1.61,1.61,0,0,1-1-.37l-1.17-.95-.79.82a1.63,1.63,0,0,1-2.35-2.27l2.88-3,3.49,2.84a1.64,1.64,0,0,1-1,2.91Z"/><path class="cls-1" d="M42,26.64a1.61,1.61,0,0,1-1-.37l-1.17-.95-.79.82a1.63,1.63,0,0,1-2.35-2.27l2.87-3L43,23.73a1.64,1.64,0,0,1-1,2.91Z"/><polygon class="cls-1" points="19.31 63.91 21.59 83.68 21.98 87.07 22.57 92.12 47.49 92.12 48.22 87.07 48.7 83.68 51.55 63.91 19.31 63.91"/><polygon class="cls-2" points="44.53 87.07 44.3 88.98 25.92 88.98 25.73 87.07 25.41 83.68 23.79 67.04 46.97 67.04 44.94 83.68 44.53 87.07"/><path class="cls-1" d="M28.38,78.12a.92.92,0,0,1-.89-.73l-1.67-8.14a.91.91,0,0,1,1.78-.37L29.27,77a.91.91,0,0,1-.71,1.07Z"/><path class="cls-1" d="M30.64,77.06a.92.92,0,0,1-.89-.73l-1.16-5.66a.91.91,0,0,1,1.78-.37L31.53,76A.91.91,0,0,1,30.82,77Z"/></g></g></svg>