<svg xmlns="http://www.w3.org/2000/svg" viewBox="0 0 72.35 109.75"><defs><style>.cls-1{fill:#042354;}.cls-2,.cls-3{fill:none;}.cls-3{stroke:#042354;stroke-linecap:round;stroke-miterlimit:10;stroke-width:2px;}</style></defs><g id="Capa_2" data-name="Capa 2"><g id="Capa_1-2" data-name="Capa 1"><path class="cls-1" d="M56.88,61.77H15.31a3.25,3.25,0,0,1-3-1.68,2.58,2.58,0,0,1,.24-2.71l8.09-11a3.38,3.38,0,0,1,2.72-1.29h25.4a3.4,3.4,0,0,1,2.73,1.29l8.08,11a2.54,2.54,0,0,1,.24,2.71A3.23,3.23,0,0,1,56.88,61.77ZM15.93,58.45H56.26l-7.36-10H23.29Z"/><path class="cls-1" d="M24,18.25,22.26,16.4a2.82,2.82,0,0,1-.32-.37L14.15,4.47A2.68,2.68,0,0,1,14,1.65,3.22,3.22,0,0,1,16.89,0H56.94a3.22,3.22,0,0,1,2.89,1.65,2.68,2.68,0,0,1-.16,2.82L51.88,16a3.21,3.21,0,0,1-.3.37l-1.77,1.86-1-2.35a7,7,0,0,0-6.41-4.21H31.44A7,7,0,0,0,25,15.9Zm7.41-9.94H42.38a10.31,10.31,0,0,1,8,3.83l5.91-8.76H17.5l5.9,8.76A10.34,10.34,0,0,1,31.44,8.31Z"/><path class="cls-1" d="M37.9,47h-2c-5.51,0-14.84-7.79-14.84-13.7V18.66A10.33,10.33,0,0,1,31.44,8.31H42.38a10.34,10.34,0,0,1,9.51,6.25h0a10.14,10.14,0,0,1,.85,4.1V33.25C52.74,39.16,43.41,47,37.9,47ZM31.44,11.69a7,7,0,0,0-7,7V33.25c0,1.68,1.66,4.25,4.22,6.54s5.43,3.77,7.24,3.77h2c1.8,0,4.71-1.51,7.24-3.77s4.21-4.86,4.21-6.54V18.66a7.09,7.09,0,0,0-.56-2.76,7,7,0,0,0-6.41-4.21Z"/><path class="cls-1" d="M19.89,34.94a4.59,4.59,0,0,1-4.58-4.58V23.53a4.58,4.58,0,1,1,9.16,0v6.83A4.58,4.58,0,0,1,19.89,34.94Zm0-12.61a1.19,1.19,0,0,0-1.19,1.2v6.83a1.2,1.2,0,1,0,2.39,0V23.53A1.2,1.2,0,0,0,19.89,22.33Z"/><path class="cls-1" d="M53.93,34.94a4.59,4.59,0,0,1-4.58-4.58V23.53a4.58,4.58,0,1,1,9.16,0v6.83A4.58,4.58,0,0,1,53.93,34.94Zm0-12.61a1.2,1.2,0,0,0-1.19,1.2v6.83a1.2,1.2,0,1,0,2.39,0V23.53A1.2,1.2,0,0,0,53.93,22.33Z"/><polygon class="cls-2" points="53.08 64 50.23 83.77 51.45 83.77 56.35 61.8 17.39 61.8 21.31 83.77 23.12 83.77 20.84 64 53.08 64"/><polygon class="cls-1" points="26.93 83.77 23.12 83.77 23.51 87.16 27.26 87.16 26.93 83.77"/><polygon class="cls-1" points="46.06 87.16 49.74 87.16 50.23 83.77 46.47 83.77 46.06 87.16"/><path class="cls-1" d="M19.21,83.77h2.1l-3.92-22h39l-4.9,22h2l.5.47.68.69,5.91-26.51H13.34L18.07,84.9l.65-.66Z"/><path class="cls-1" d="M54.66,84.93,54,84.24l-.5-.47H50.23l-.49,3.39h2.37a21.81,21.81,0,0,1,6.3,15.39,3.82,3.82,0,0,1-3.82,3.81H18.1a3.82,3.82,0,0,1-3.81-3.81,21.81,21.81,0,0,1,6.3-15.39h2.92l-.39-3.39H19.21l-.49.47-.65.66a25.18,25.18,0,0,0-7.17,17.65,7.21,7.21,0,0,0,7.2,7.2H54.59a7.21,7.21,0,0,0,7.2-7.2A25.22,25.22,0,0,0,54.66,84.93Z"/><polygon class="cls-1" points="45.82 89.07 27.45 89.07 27.26 87.16 23.51 87.16 24.09 92.21 49.01 92.21 49.74 87.16 46.06 87.16 45.82 89.07"/><polygon class="cls-1" points="25.31 67.13 48.49 67.13 46.47 83.77 50.23 83.77 53.08 64 20.84 64 23.12 83.77 26.93 83.77 25.31 67.13"/><polygon class="cls-1" points="26.93 83.77 23.12 83.77 23.51 87.16 27.26 87.16 26.93 83.77"/><polygon class="cls-1" points="46.47 83.77 46.06 87.16 49.74 87.16 50.23 83.77 46.47 83.77"/><path class="cls-1" d="M1.69,91.48H1.55A1.69,1.69,0,0,1,0,89.65L1.5,71.88a1.66,1.66,0,0,1,.36-.9L12.6,57.32a1.69,1.69,0,1,1,2.66,2.09L4.83,72.67,3.38,89.93A1.7,1.7,0,0,1,1.69,91.48Z"/><path class="cls-1" d="M5.82,85.89a1.66,1.66,0,0,1-1.12-.43l-3.41-3a1.69,1.69,0,1,1,2.25-2.53l3.4,3a1.7,1.7,0,0,1-1.12,3Z"/><path class="cls-1" d="M58.42,61.59a1.65,1.65,0,0,1-1.05-.36,1.7,1.7,0,0,1-.28-2.38L67.52,45.59,69,28.33a1.69,1.69,0,0,1,3.37.29L70.85,46.38a1.69,1.69,0,0,1-.36.91L59.75,61A1.7,1.7,0,0,1,58.42,61.59Z"/><path class="cls-1" d="M69.93,38.77a1.7,1.7,0,0,1-1.12-.42l-3.4-3a1.69,1.69,0,0,1,2.24-2.54l3.4,3a1.69,1.69,0,0,1-1.12,3Z"/><path class="cls-1" d="M31.09,28.2a3.29,3.29,0,1,1,3.28-3.28A3.29,3.29,0,0,1,31.09,28.2Zm0-4.45a1.17,1.17,0,0,0,0,2.34,1.17,1.17,0,0,0,0-2.34Z"/><path class="cls-1" d="M42.74,28.2A3.29,3.29,0,1,1,46,24.92,3.28,3.28,0,0,1,42.74,28.2Zm0-4.45a1.17,1.17,0,1,0,1.17,1.17A1.17,1.17,0,0,0,42.74,23.75Z"/><path class="cls-1" d="M36.86,38.06h-.37A8.2,8.2,0,0,1,31,35.17a1.69,1.69,0,0,1,2.64-2.12,4.74,4.74,0,0,0,3,1.62,4.88,4.88,0,0,0,3.58-1.75,1.69,1.69,0,0,1,2.39,2.39A8.21,8.21,0,0,1,36.86,38.06Z"/><line class="cls-3" x1="28.24" y1="69.15" x2="29.91" y2="77.3"/><line class="cls-3" x1="31" y1="70.58" x2="32.16" y2="76.24"/></g></g></svg>