<svg xmlns="http://www.w3.org/2000/svg" viewBox="0 0 73.83 109.75"><defs><style>.cls-1{fill:#042354;}.cls-2{fill:#fff;}</style></defs><g id="Capa_2" data-name="Capa 2"><g id="Capa_1-2" data-name="Capa 1"><path class="cls-1" d="M58.46,61.8H15.37a3.37,3.37,0,0,1-3.07-1.73,2.54,2.54,0,0,1,.29-2.73l8.38-11a3.48,3.48,0,0,1,2.78-1.28H50.08a3.48,3.48,0,0,1,2.78,1.28l8.38,11a2.54,2.54,0,0,1,.28,2.73A3.37,3.37,0,0,1,58.46,61.8ZM16,58.42H57.81l-7.58-9.93-.15,0H23.75l-.15,0Z"/><path class="cls-1" d="M24,18.25,22.26,16.4a2.82,2.82,0,0,1-.32-.37L14.15,4.47A2.68,2.68,0,0,1,14,1.65,3.22,3.22,0,0,1,16.89,0H56.94a3.22,3.22,0,0,1,2.89,1.65,2.68,2.68,0,0,1-.16,2.82h0L51.88,16a3.21,3.21,0,0,1-.3.37l-1.77,1.86-1-2.35a7,7,0,0,0-6.41-4.21H31.44A7,7,0,0,0,25,15.9Zm7.41-9.94H42.38a10.31,10.31,0,0,1,8,3.83l5.91-8.76H17.5l5.9,8.76A10.34,10.34,0,0,1,31.44,8.31Z"/><path class="cls-1" d="M37.9,47h-2c-5.51,0-14.84-7.79-14.84-13.7V18.66A10.33,10.33,0,0,1,31.44,8.31H42.38a10.34,10.34,0,0,1,9.51,6.25h0a10.14,10.14,0,0,1,.85,4.1V33.25C52.74,39.16,43.41,47,37.9,47ZM31.44,11.69a7,7,0,0,0-7,7V33.25c0,1.68,1.66,4.25,4.22,6.54s5.43,3.77,7.24,3.77h2c1.8,0,4.71-1.51,7.24-3.77s4.21-4.86,4.21-6.54V18.66a7.09,7.09,0,0,0-.56-2.76h0a7,7,0,0,0-6.41-4.21Z"/><path class="cls-1" d="M19.89,34.94a4.59,4.59,0,0,1-4.58-4.58V23.53a4.58,4.58,0,1,1,9.16,0v6.83A4.58,4.58,0,0,1,19.89,34.94Zm0-12.61a1.19,1.19,0,0,0-1.19,1.2v6.83a1.2,1.2,0,1,0,2.39,0V23.53A1.2,1.2,0,0,0,19.89,22.33Z"/><path class="cls-1" d="M53.93,34.94a4.59,4.59,0,0,1-4.58-4.58V23.53a4.58,4.58,0,1,1,9.16,0v6.83A4.58,4.58,0,0,1,53.93,34.94Zm0-12.61a1.2,1.2,0,0,0-1.19,1.2v6.83a1.2,1.2,0,0,0,1.19,1.2h0a1.2,1.2,0,0,0,1.2-1.2V23.53A1.2,1.2,0,0,0,53.93,22.33Z"/><path class="cls-1" d="M54.59,109.75H18.1a7.21,7.21,0,0,1-7.2-7.2,25.24,25.24,0,0,1,7.82-18.31l.49-.47H53.48l.5.47a25.23,25.23,0,0,1,7.81,18.31A7.21,7.21,0,0,1,54.59,109.75Zm-34-22.59a21.81,21.81,0,0,0-6.3,15.39,3.82,3.82,0,0,0,3.81,3.81H54.59a3.82,3.82,0,0,0,3.82-3.81,21.81,21.81,0,0,0-6.3-15.39Z"/><path class="cls-1" d="M54.16,87.16H18.48L13.34,58.42H60.57ZM21.31,83.77H51.45l4.9-22h-39Z"/><path class="cls-1" d="M1.69,91.48H1.55A1.69,1.69,0,0,1,0,89.65L1.5,71.88a1.66,1.66,0,0,1,.36-.9L12.6,57.32a1.69,1.69,0,1,1,2.66,2.09L4.83,72.67,3.38,89.93A1.7,1.7,0,0,1,1.69,91.48Z"/><path class="cls-1" d="M5.82,85.89a1.66,1.66,0,0,1-1.12-.43l-3.41-3a1.69,1.69,0,1,1,2.25-2.53l3.4,3a1.7,1.7,0,0,1-1.12,3Z"/><path class="cls-1" d="M72.13,91.48a1.68,1.68,0,0,1-1.68-1.55L69,72.67,58.57,59.41a1.69,1.69,0,1,1,2.66-2.09L72,71a1.66,1.66,0,0,1,.36.9l1.49,17.77a1.69,1.69,0,0,1-1.54,1.83Z"/><path class="cls-1" d="M68,85.89a1.7,1.7,0,0,1-1.27-.58,1.68,1.68,0,0,1,.15-2.38l3.4-3a1.69,1.69,0,1,1,2.24,2.53l-3.4,3A1.66,1.66,0,0,1,68,85.89Z"/><path class="cls-1" d="M31.09,30.91a3.29,3.29,0,1,1,3.28-3.28A3.29,3.29,0,0,1,31.09,30.91Zm0-4.45a1.17,1.17,0,1,0,0,2.34,1.17,1.17,0,0,0,0-2.34Z"/><path class="cls-1" d="M42.74,30.91A3.29,3.29,0,1,1,46,27.63,3.28,3.28,0,0,1,42.74,30.91Zm0-4.45a1.17,1.17,0,1,0,1.17,1.17A1.17,1.17,0,0,0,42.74,26.46Z"/><path class="cls-1" d="M36.88,37.75h-.3a6.29,6.29,0,0,1-4.27-2.25A1.7,1.7,0,0,1,35,33.36a2.9,2.9,0,0,0,1.84,1A3.1,3.1,0,0,0,39,33.23a1.69,1.69,0,0,1,2.39,2.4A6.39,6.39,0,0,1,36.88,37.75Z"/><path class="cls-1" d="M14.62,40.13A1.59,1.59,0,0,1,14,40c-4.92-2-4.87-8.65-4.86-8.93a1.69,1.69,0,0,1,3.38.05c0,.07,0,4.62,2.76,5.75a1.7,1.7,0,0,1-.64,3.26Z"/><path class="cls-1" d="M10.05,42.9a1.58,1.58,0,0,1-.63-.13C4.62,40.82,4,34.56,4,34.29A1.69,1.69,0,0,1,7.33,34c0,.07.48,4.49,3.36,5.66a1.68,1.68,0,0,1,.93,2.2A1.7,1.7,0,0,1,10.05,42.9Z"/><path class="cls-1" d="M63.34,24.3h0a1.68,1.68,0,0,1-1.66-1.71h0c0-.05,0-4.62-2.77-5.75a1.69,1.69,0,1,1,1.28-3.13c4.92,2,4.87,8.64,4.87,8.92A1.69,1.69,0,0,1,63.34,24.3Z"/><path class="cls-1" d="M68.51,21.25a1.7,1.7,0,0,1-1.69-1.52c0-.06-.48-4.49-3.37-5.66a1.69,1.69,0,0,1,1.27-3.14c4.81,2,5.45,8.21,5.47,8.47a1.69,1.69,0,0,1-1.52,1.85Z"/><polygon class="cls-1" points="20.23 64 22.51 83.77 22.9 87.16 23.48 92.21 48.4 92.21 49.13 87.16 49.62 83.77 52.47 64 20.23 64"/><polygon class="cls-2" points="45.44 87.16 45.21 89.07 26.84 89.07 26.65 87.16 26.32 83.77 24.7 67.13 47.88 67.13 45.86 83.77 45.44 87.16"/><path class="cls-1" d="M29.29,78.21a.9.9,0,0,1-.88-.73l-1.67-8.14a.9.9,0,0,1,.7-1.07.89.89,0,0,1,1.07.7l1.67,8.15a.9.9,0,0,1-.7,1.07Z"/><path class="cls-1" d="M31.55,77.15a.92.92,0,0,1-.89-.73L29.5,70.76a.91.91,0,0,1,1.78-.37l1.16,5.67a.9.9,0,0,1-.7,1.07Z"/></g></g></svg>