<svg xmlns="http://www.w3.org/2000/svg" viewBox="0 0 107.02 105"><defs><style>.cls-1{fill:#042354;}.cls-2{fill:#da251d;}.cls-3{fill:#fff;}</style></defs><g id="Capa_2" data-name="Capa 2"><g id="Capa_1-2" data-name="Capa 1"><path class="cls-1" d="M53.55,105a52.75,52.75,0,0,1-29.69-8.81c-12.59-8.38-20.5-20-23.09-35C-3.36,37.38,9.5,14.73,30.91,4.93A52.65,52.65,0,0,1,57.42.17C72.87,1.41,85.64,8,95.48,20a50.13,50.13,0,0,1,11.23,26.87C109.49,72.43,93.37,95,70.08,102.43A54,54,0,0,1,53.55,105ZM53,7.4A46.88,46.88,0,0,0,39.38,9.57,45.24,45.24,0,0,0,7.64,49.31,43.31,43.31,0,0,0,14.2,75.93,46.37,46.37,0,0,0,66.46,95.8,45.37,45.37,0,0,0,99.12,58.38a43.71,43.71,0,0,0-2.54-21.71C89.85,19.08,72.71,7.42,53,7.4Z"/><path class="cls-2" d="M53,7.4c19.71,0,36.85,11.68,43.58,29.27a43.71,43.71,0,0,1,2.54,21.71A45.37,45.37,0,0,1,66.46,95.8,46.37,46.37,0,0,1,14.2,75.93,43.31,43.31,0,0,1,7.64,49.31,45.24,45.24,0,0,1,39.38,9.57,46.88,46.88,0,0,1,53,7.4Zm9.23,36c-4.87,0-7.85,2.06-8.92,5.7a12,12,0,0,0,0,6.78,7.4,7.4,0,0,0,4.49,5.07,10.15,10.15,0,0,0,7.49,0,7,7,0,0,0,4.08-3.8,10.87,10.87,0,0,0,0-9.32A7.59,7.59,0,0,0,62.23,43.38ZM35.07,48.89a4.73,4.73,0,0,0-2.74-4.71,9.66,9.66,0,0,0-7.88,0,4.58,4.58,0,0,0-.26,8.27,20.71,20.71,0,0,0,3.25,1.19c1.15.37,2.35.59,3.46,1a1.7,1.7,0,0,1,.62,2.85,3.25,3.25,0,0,1-.9.71,4.09,4.09,0,0,1-5.92-2.48c-.05-.16-.2-.42-.29-.42-1.11.07-2.22.18-3.34.27.35,3.1,1.91,5,4.59,5.73a11.5,11.5,0,0,0,5.74,0,5.27,5.27,0,0,0,4.29-4.91c.1-2.56-1.14-4.33-3.78-5.27-1-.35-2-.58-3.05-.88s-1.81-.53-2.68-.86a1.38,1.38,0,0,1-1-1.39,1.32,1.32,0,0,1,1-1.26,9.33,9.33,0,0,1,2.34-.35,2.61,2.61,0,0,1,2.85,2.06c.06.18.28.41.44.42C32.93,48.9,34,48.89,35.07,48.89ZM76.74,61.28v-.85c0-1.62.05-3.24,0-4.86,0-.77.24-1,1-.89a9.4,9.4,0,0,0,1.3,0c1,0,2.07,0,3.11-.14,3-.23,5.44-2.66,4.67-6.78a4.46,4.46,0,0,0-4.17-3.89c-2.59-.19-5.2-.13-7.81-.17-.54,0-1.08,0-1.64,0V61.28ZM37.47,43.73v3c1.54,0,3,0,4.53,0,.6,0,.77.17.77.77,0,4.32,0,8.63,0,13v.88h3.69V46.68c1.63,0,3.15,0,4.66,0,.21,0,.59-.23.6-.37.06-.83,0-1.67,0-2.57Z"/><path class="cls-3" d="M62.23,43.38a7.59,7.59,0,0,1,7.09,4.48,10.87,10.87,0,0,1,0,9.32A7,7,0,0,1,65.25,61a10.15,10.15,0,0,1-7.49,0,7.4,7.4,0,0,1-4.49-5.07,12,12,0,0,1,0-6.78C54.38,45.44,57.36,43.4,62.23,43.38Zm4.38,9.24c-.14-1-.2-1.79-.38-2.58a4.42,4.42,0,0,0-4.14-3.55c-2.46-.15-4.26.88-5,3a8.77,8.77,0,0,0,0,6.1,4.55,4.55,0,0,0,4.6,3A4.44,4.44,0,0,0,66,55.46,23.12,23.12,0,0,0,66.61,52.62Z"/><path class="cls-3" d="M35.07,48.89c-1.08,0-2.14,0-3.2,0-.16,0-.38-.24-.44-.42a2.61,2.61,0,0,0-2.85-2.06,9.33,9.33,0,0,0-2.34.35,1.32,1.32,0,0,0-1,1.26,1.38,1.38,0,0,0,1,1.39c.87.33,1.78.59,2.68.86s2.06.53,3.05.88c2.64.94,3.88,2.71,3.78,5.27a5.27,5.27,0,0,1-4.29,4.91,11.5,11.5,0,0,1-5.74,0c-2.68-.7-4.24-2.63-4.59-5.73,1.12-.09,2.23-.2,3.34-.27.09,0,.24.26.29.42a4.09,4.09,0,0,0,5.92,2.48,3.25,3.25,0,0,0,.9-.71,1.7,1.7,0,0,0-.62-2.85c-1.11-.45-2.31-.67-3.46-1a20.71,20.71,0,0,1-3.25-1.19,4.58,4.58,0,0,1,.26-8.27,9.66,9.66,0,0,1,7.88,0A4.73,4.73,0,0,1,35.07,48.89Z"/><path class="cls-3" d="M76.74,61.28H73.13V43.7c.56,0,1.1,0,1.64,0,2.61,0,5.22,0,7.81.17a4.46,4.46,0,0,1,4.17,3.89c.77,4.12-1.68,6.55-4.67,6.78-1,.09-2.07.1-3.11.14a9.4,9.4,0,0,1-1.3,0c-.71-.08-1,.12-1,.89.07,1.62,0,3.24,0,4.86Zm0-12.11c0,.67,0,1.35,0,2,0,.17.25.45.38.45a36.11,36.11,0,0,0,4-.17A2.19,2.19,0,0,0,83.09,49,2.26,2.26,0,0,0,80.9,46.8c-1.2-.09-2.4-.07-3.61-.12-.4,0-.56.12-.55.54C76.76,47.87,76.75,48.52,76.75,49.17Z"/><path class="cls-3" d="M37.47,43.73H51.73c0,.9,0,1.74,0,2.57,0,.14-.39.36-.6.37-1.51,0-3,0-4.66,0V61.27H42.75v-.88c0-4.32,0-8.63,0-13,0-.6-.17-.79-.77-.77-1.49,0-3,0-4.53,0Z"/><path class="cls-2" d="M66.61,52.62A23.12,23.12,0,0,1,66,55.46a4.44,4.44,0,0,1-4.29,3.08,4.55,4.55,0,0,1-4.6-3,8.77,8.77,0,0,1,0-6.1c.73-2.1,2.53-3.13,5-3A4.42,4.42,0,0,1,66.23,50C66.41,50.83,66.47,51.66,66.61,52.62Z"/><path class="cls-2" d="M76.75,49.17c0-.65,0-1.3,0-2,0-.42.15-.56.55-.54,1.21,0,2.41,0,3.61.12A2.26,2.26,0,0,1,83.09,49a2.19,2.19,0,0,1-1.92,2.48,36.11,36.11,0,0,1-4,.17c-.13,0-.37-.28-.38-.45C76.72,50.52,76.75,49.84,76.75,49.17Z"/></g></g></svg>