<svg xmlns="http://www.w3.org/2000/svg" viewBox="0 0 105.05 105.8"><defs><style>.cls-1{fill:#042354;}.cls-2{fill:none;stroke:#fff;stroke-miterlimit:10;stroke-width:3.8px;}</style></defs><g id="Capa_2" data-name="Capa 2"><g id="Capa_1-2" data-name="Capa 1"><circle class="cls-1" cx="52.52" cy="52.52" r="52.52"/><circle class="cls-1" cx="52.52" cy="53.27" r="52.52"/><path class="cls-2" d="M20.28,72.81V70.7a1.89,1.89,0,0,1,1.89-1.89h7.34c-3.21-1.4-3.91-3.94-3.87-7.13.12-8.14,0-16.29,0-24.44a6,6,0,0,1,6-6H73.25c4,0,6,2,6,6,0,8.19-.08,16.39,0,24.58,0,3.15-.74,5.61-3.85,7h7.51a1.73,1.73,0,0,1,1.73,1.73v1.72A1.71,1.71,0,0,1,82.94,74H21.43A1.16,1.16,0,0,1,20.28,72.81ZM55.14,59.3,65.89,49.23l-10.75-10V42c0,2.75,0,2.75-2.63,3.42l-.83.23c-6.52,1.93-12,8.32-12.41,14.77,4-5.29,9.49-7,15.87-7Z"/></g></g></svg>