<?xml version="1.0" encoding="utf-8"?>
<!-- Generator: Adobe Illustrator 24.0.0, SVG Export Plug-In . SVG Version: 6.00 Build 0)  -->
<svg version="1.1" id="Capa_1" xmlns="http://www.w3.org/2000/svg" xmlns:xlink="http://www.w3.org/1999/xlink" x="0px" y="0px"
	 viewBox="0 0 200 200" style="enable-background:new 0 0 200 200;" xml:space="preserve">
<style type="text/css">
	.st0{fill:none;stroke:#9F42F5;stroke-width:3.2177;stroke-miterlimit:10;}
	.st1{fill:none;stroke:#1499DB;stroke-width:2.5742;stroke-miterlimit:10;}
	.st2{fill:none;stroke:#9F42F5;stroke-width:3.2102;stroke-miterlimit:10;}
	.st3{fill:none;stroke:#1499DB;stroke-width:2.5682;stroke-miterlimit:10;}
	.st4{fill:#042354;}
	.st5{fill:none;stroke:#9F42F5;stroke-width:3.2219;stroke-miterlimit:10;}
	.st6{fill:none;stroke:#1499DB;stroke-width:2.5775;stroke-miterlimit:10;}
	.st7{fill:none;}
</style>
<circle class="st0" cx="100.31" cy="100.51" r="98"/>
<circle class="st1" cx="100.31" cy="100.51" r="90.37"/>
<g>
	<g>
		<g>
			<path class="st4" d="M167.11,98.25c-1.67-0.04-2.51-0.64-2.94-2.24c-0.56-2.08-1.38-4.03-2.44-5.9
				c-0.83-1.48-0.67-2.39,0.51-3.64c0.29-0.3,0.61-0.58,0.88-0.89c0.88-0.99,2.65-1.82,2.53-2.88c-0.11-1.06-1.72-1.93-2.62-2.93
				c-0.49-0.54-0.8-0.59-1.32-0.03c-1.01,1.09-2.1,2.12-3.15,3.17c-1.06,1.07-2.27,1.24-3.55,0.49c-1.9-1.11-3.89-1.95-6.03-2.49
				c-1.38-0.35-2.11-1.29-2.12-2.74c0-0.51,0.02-1.03-0.01-1.54c-0.08-1.29,0.58-3.01-0.26-3.75c-0.88-0.78-2.58-0.13-3.92-0.24
				c-0.86-0.07-1,0.33-0.98,1.06c0.04,1.44-0.01,2.89,0.02,4.33c0.03,1.52-0.68,2.5-2.12,2.88c-2.13,0.55-4.13,1.38-6.03,2.49
				c-1.28,0.74-2.49,0.58-3.55-0.5c-1.05-1.06-2.13-2.08-3.15-3.17c-0.51-0.55-0.83-0.52-1.32,0.02c-0.75,0.83-1.55,1.61-2.37,2.37
				c-0.47,0.44-0.55,0.72-0.02,1.2c1,0.91,1.93,1.89,2.88,2.85c1.62,1.63,1.72,2.38,0.56,4.42c-0.79,1.38-1.42,2.82-1.88,4.33
				c-0.95,3.1-1.25,3.33-4.49,3.34c-1.3,0-3.09-0.46-3.76,0.2c-0.86,0.84-0.15,2.64-0.29,4.01c-0.08,0.81,0.3,0.9,0.96,0.89
				c1.44-0.04,2.89,0,4.33-0.01c1.49-0.01,2.5,0.62,2.9,2.09c0.58,2.17,1.41,4.22,2.57,6.15c0.76,1.26,0.5,2.4-0.48,3.42
				c-0.32,0.34-0.66,0.65-0.99,0.99c-0.93,0.97-1.85,1.94-2.77,2.9c0.98,1,1.98,1.97,2.92,3c0.48,0.53,0.76,0.46,1.21-0.02
				c1.06-1.12,2.16-2.19,3.25-3.27c1.02-1.01,2.19-1.19,3.43-0.46c1.94,1.13,3.98,1.98,6.15,2.55c1.31,0.34,2.04,1.24,2.04,2.65
				c0,0.51-0.02,1.03,0.01,1.54c0.07,1.29-0.56,3.02,0.25,3.76c0.86,0.79,2.58,0.14,3.92,0.25c0.84,0.07,1.02-0.3,1-1.06
				c-0.05-1.35-0.03-2.7-0.01-4.05c0.03-1.99,0.51-2.63,2.43-3.18c1.61-0.47,3.18-1.03,4.65-1.83c2.89-1.58,3.18-1.51,5.54,0.8
				c0.95,0.94,1.86,2.7,2.9,2.57c1.11-0.14,2.01-1.76,3.04-2.69c0.49-0.44,0.5-0.72,0.01-1.18c-1.12-1.05-2.19-2.15-3.27-3.25
				c-1-1.01-1.26-2.17-0.51-3.42c1.15-1.93,1.99-3.98,2.58-6.14c0.4-1.46,1.38-2.13,2.88-2.12c1.77,0.01,3.54,0,5.31,0
				c0-1.68,0-3.35,0-5.03C170.64,98.3,168.87,98.3,167.11,98.25z M144.27,113.56c-6.97-0.03-12.66-5.71-12.72-12.69
				c-0.05-7,5.66-12.79,12.69-12.86c6.93-0.07,12.78,5.76,12.8,12.77C157.07,107.75,151.24,113.58,144.27,113.56z"/>
		</g>
	</g>
	<path class="st4" d="M144.32,108.42c-4.2,0.01-7.64-3.38-7.69-7.57c-0.04-4.21,3.5-7.76,7.71-7.72c4.18,0.04,7.63,3.51,7.62,7.67
		C151.96,104.97,148.51,108.41,144.32,108.42z"/>
	<g>
		<g>
			<path class="st4" d="M120.84,146.4c-1.12-0.03-1.69-0.43-1.98-1.51c-0.38-1.4-0.93-2.71-1.64-3.98c-0.56-1-0.45-1.61,0.34-2.45
				c0.19-0.2,0.41-0.39,0.6-0.6c0.59-0.67,1.78-1.22,1.71-1.94c-0.08-0.71-1.16-1.3-1.76-1.98c-0.33-0.37-0.54-0.39-0.89-0.02
				c-0.68,0.74-1.41,1.43-2.12,2.14c-0.72,0.72-1.53,0.83-2.39,0.33c-1.28-0.74-2.62-1.31-4.06-1.68c-0.93-0.23-1.42-0.87-1.43-1.84
				c0-0.35,0.02-0.69-0.01-1.03c-0.05-0.87,0.39-2.03-0.18-2.53c-0.59-0.52-1.74-0.09-2.64-0.16c-0.58-0.05-0.67,0.22-0.66,0.72
				c0.03,0.97-0.01,1.94,0.01,2.92c0.02,1.02-0.46,1.69-1.43,1.94c-1.43,0.37-2.78,0.93-4.06,1.68c-0.86,0.5-1.68,0.39-2.39-0.33
				c-0.71-0.71-1.44-1.4-2.12-2.14c-0.34-0.37-0.56-0.35-0.89,0.01c-0.5,0.56-1.04,1.09-1.6,1.6c-0.32,0.29-0.37,0.48-0.01,0.81
				c0.67,0.61,1.3,1.28,1.94,1.92c1.09,1.1,1.16,1.6,0.38,2.98c-0.53,0.93-0.95,1.9-1.27,2.92c-0.64,2.09-0.84,2.24-3.02,2.25
				c-0.87,0-2.08-0.31-2.54,0.13c-0.58,0.57-0.1,1.78-0.2,2.7c-0.06,0.54,0.2,0.61,0.65,0.6c0.97-0.03,1.94,0,2.92-0.01
				c1-0.01,1.68,0.42,1.95,1.41c0.39,1.46,0.95,2.84,1.73,4.14c0.51,0.85,0.34,1.61-0.32,2.3c-0.22,0.23-0.45,0.44-0.66,0.67
				c-0.62,0.65-1.24,1.3-1.86,1.96c0.66,0.67,1.34,1.32,1.96,2.02c0.32,0.36,0.51,0.31,0.81-0.01c0.71-0.75,1.45-1.47,2.19-2.2
				c0.69-0.68,1.47-0.8,2.31-0.31c1.3,0.76,2.68,1.34,4.14,1.72c0.88,0.23,1.37,0.84,1.37,1.78c0,0.35-0.01,0.69,0.01,1.03
				c0.05,0.87-0.38,2.03,0.17,2.53c0.58,0.53,1.74,0.09,2.64,0.17c0.57,0.05,0.69-0.2,0.67-0.71c-0.03-0.91-0.02-1.82-0.01-2.73
				c0.02-1.34,0.35-1.77,1.63-2.15c1.08-0.32,2.14-0.69,3.13-1.24c1.95-1.06,2.14-1.02,3.73,0.54c0.64,0.63,1.25,1.82,1.95,1.73
				c0.74-0.09,1.35-1.19,2.05-1.81c0.33-0.3,0.33-0.49,0.01-0.79c-0.76-0.71-1.48-1.45-2.2-2.19c-0.67-0.68-0.85-1.46-0.34-2.3
				c0.78-1.3,1.34-2.68,1.74-4.14c0.27-0.99,0.93-1.43,1.94-1.43c1.19,0.01,2.38,0,3.58,0c0-1.13,0-2.26,0-3.39
				C123.22,146.43,122.03,146.43,120.84,146.4z M105.46,156.7c-4.69-0.02-8.53-3.85-8.56-8.54c-0.04-4.72,3.81-8.61,8.55-8.66
				c4.67-0.05,8.61,3.88,8.62,8.6C114.08,152.79,110.15,156.72,105.46,156.7z"/>
		</g>
	</g>
	<path class="st4" d="M105.49,153.25c-2.83,0.01-5.15-2.28-5.18-5.1c-0.03-2.84,2.36-5.22,5.19-5.2c2.82,0.03,5.14,2.36,5.14,5.16
		C110.63,150.92,108.31,153.24,105.49,153.25z"/>
	<g>
		<g>
			<path class="st4" d="M104,77.57c-2.49-0.07-3.75-0.96-4.39-3.35c-0.84-3.1-2.07-6.02-3.64-8.82c-1.25-2.21-1-3.57,0.76-5.43
				c0.43-0.45,0.91-0.87,1.32-1.34c1.31-1.48,3.96-2.71,3.78-4.31c-0.17-1.58-2.57-2.89-3.92-4.39c-0.73-0.81-1.2-0.88-1.97-0.04
				c-1.51,1.64-3.13,3.17-4.7,4.74c-1.59,1.6-3.4,1.85-5.31,0.73c-2.84-1.65-5.82-2.92-9.01-3.72c-2.06-0.52-3.15-1.92-3.17-4.09
				c-0.01-0.77,0.04-1.53-0.01-2.3c-0.12-1.93,0.86-4.5-0.39-5.61c-1.31-1.16-3.86-0.19-5.85-0.36c-1.29-0.11-1.5,0.49-1.46,1.59
				c0.07,2.16-0.02,4.32,0.03,6.47c0.05,2.27-1.02,3.74-3.17,4.3c-3.18,0.82-6.17,2.07-9.01,3.73c-1.91,1.11-3.72,0.87-5.31-0.74
				c-1.56-1.58-3.19-3.11-4.71-4.74c-0.76-0.82-1.25-0.78-1.97,0.03c-1.11,1.24-2.31,2.41-3.54,3.54c-0.71,0.65-0.82,1.07-0.03,1.79
				c1.49,1.35,2.88,2.83,4.3,4.26c2.42,2.44,2.58,3.55,0.84,6.6c-1.18,2.06-2.12,4.22-2.81,6.48c-1.41,4.63-1.87,4.97-6.71,4.99
				c-1.94,0.01-4.62-0.69-5.63,0.3c-1.28,1.26-0.23,3.94-0.44,5.99c-0.12,1.21,0.44,1.35,1.44,1.33c2.16-0.06,4.32,0,6.47-0.02
				c2.22-0.02,3.74,0.92,4.33,3.13c0.87,3.24,2.11,6.31,3.84,9.19c1.13,1.88,0.75,3.58-0.71,5.11c-0.48,0.5-0.99,0.98-1.47,1.48
				c-1.38,1.44-2.76,2.89-4.14,4.34c1.46,1.49,2.97,2.94,4.36,4.49c0.71,0.79,1.14,0.68,1.81-0.02c1.58-1.67,3.23-3.27,4.86-4.88
				c1.53-1.51,3.27-1.77,5.13-0.69c2.89,1.7,5.94,2.97,9.19,3.82c1.96,0.51,3.04,1.85,3.04,3.95c0,0.77-0.03,1.53,0.01,2.3
				c0.1,1.93-0.84,4.51,0.37,5.62c1.29,1.18,3.86,0.2,5.85,0.37c1.25,0.11,1.53-0.44,1.49-1.58c-0.08-2.02-0.04-4.04-0.02-6.06
				c0.04-2.97,0.77-3.92,3.62-4.76c2.4-0.7,4.75-1.54,6.95-2.74c4.33-2.36,4.75-2.26,8.27,1.19c1.43,1.4,2.78,4.04,4.33,3.84
				c1.65-0.21,3-2.63,4.54-4.03c0.73-0.66,0.74-1.08,0.01-1.76c-1.68-1.57-3.28-3.22-4.89-4.85c-1.49-1.51-1.88-3.25-0.76-5.11
				c1.72-2.88,2.97-5.95,3.85-9.18c0.59-2.19,2.07-3.18,4.31-3.16c2.65,0.02,5.29,0,7.94,0c0-2.51,0-5.01,0-7.52
				C109.28,77.64,106.64,77.64,104,77.57z M69.87,100.45c-10.41-0.04-18.93-8.54-19.01-18.96c-0.08-10.47,8.46-19.12,18.97-19.22
				c10.35-0.11,19.1,8.61,19.13,19.08C89,91.77,80.28,100.49,69.87,100.45z"/>
		</g>
	</g>
	<path class="st4" d="M69.94,92.78c-6.28,0.01-11.42-5.05-11.49-11.31c-0.06-6.29,5.23-11.59,11.52-11.53
		c6.25,0.06,11.41,5.24,11.4,11.46C81.36,87.62,76.2,92.76,69.94,92.78z"/>
</g>
</svg>
