<?xml version="1.0" encoding="utf-8"?>
<!-- Generator: Adobe Illustrator 24.0.0, SVG Export Plug-In . SVG Version: 6.00 Build 0)  -->
<svg version="1.1" id="Capa_1" xmlns="http://www.w3.org/2000/svg" xmlns:xlink="http://www.w3.org/1999/xlink" x="0px" y="0px"
	 viewBox="0 0 101.64 101.64" style="enable-background:new 0 0 101.64 101.64;" xml:space="preserve">
<style type="text/css">
	.st0{fill:none;stroke:#9F42F5;stroke-width:3.2177;stroke-miterlimit:10;}
	.st1{fill:none;stroke:#1499DB;stroke-width:2.5742;stroke-miterlimit:10;}
	.st2{fill:none;stroke:#9F42F5;stroke-width:3.2102;stroke-miterlimit:10;}
	.st3{fill:none;stroke:#1499DB;stroke-width:2.5682;stroke-miterlimit:10;}
	.st4{fill:#042354;}
	.st5{fill:none;stroke:#9F42F5;stroke-width:3.2219;stroke-miterlimit:10;}
	.st6{fill:none;stroke:#1499DB;stroke-width:2.5775;stroke-miterlimit:10;}
	.st7{fill:none;}
	.st8{fill:#383838;}
	.st9{fill:none;stroke:#FFFFFF;stroke-width:3.4545;stroke-miterlimit:10;}
	.st10{fill:#7F32C8;}
	.st11{fill:#FFFFFF;}
	.st12{fill:none;stroke:#9F42F5;stroke-width:1.6417;stroke-miterlimit:10;}
	.st13{fill:none;stroke:#1499DB;stroke-width:1.3134;stroke-miterlimit:10;}
	.st14{fill:#FEFEFE;}
	.st15{fill:#FDFDFD;}
	.st16{fill:#EBEEF0;}
	.st17{fill:#607D8A;}
	.st18{fill:#455A64;}
	.st19{fill:#FEC007;}
	.st20{fill:#546E79;}
	.st21{fill:none;stroke:#042354;stroke-width:1.5605;stroke-miterlimit:10;}
</style>
<circle class="st12" cx="50.82" cy="50.82" r="50"/>
<circle class="st13" cx="50.82" cy="50.82" r="46.11"/>
<circle class="st13" cx="50.82" cy="50.82" r="46.11"/>
<path class="st4" d="M70.27,78.31c-12.96,0-25.92,0-38.88,0c-1.62-0.34-2.59-1.31-2.93-2.93c0-16.32,0-32.63,0-48.95
	c0.4-2.1,1.75-3.21,3.91-3.21c1.81,0,3.62-0.01,5.43,0.01c0.46,0,0.75-0.15,0.99-0.56c0.82-1.36,2.05-2.03,3.65-2.03
	c1.17,0,2.34,0,3.51,0c0.35,0,0.64-0.07,0.87-0.37c0.83-1.1,1.89-1.83,3.31-1.93c0.55,0,1.09,0,1.64,0c1.42,0.1,2.48,0.83,3.31,1.93
	c0.23,0.31,0.52,0.37,0.87,0.36c1.13-0.01,2.26,0.01,3.4,0c1.67-0.02,2.95,0.66,3.79,2.1c0.22,0.37,0.5,0.49,0.91,0.49
	c1.87-0.01,3.75-0.01,5.62,0c2.21,0.01,3.9,1.67,3.92,3.88c0.02,2.75-0.01,28.27-0.01,28.86c0.02,6.16,0.02,12.33,0,18.49
	c0,1.58-0.69,2.81-2.14,3.56C71.06,78.22,70.66,78.21,70.27,78.31z"/>
<path class="st14" d="M50.92,25.85c-3.12,0-6.25-0.01-9.37,0.01c-0.47,0-0.64-0.13-0.58-0.59c0.03-0.19,0.01-0.39,0.02-0.58
	c0.02-0.9,0.42-1.3,1.34-1.31c1.58-0.01,3.16-0.02,4.74,0c0.77,0.01,1.29-0.28,1.6-1.01c0.43-1,1.24-1.53,2.3-1.52
	c1.03,0.01,1.83,0.54,2.24,1.51c0.31,0.72,0.82,1.03,1.6,1.02c1.56-0.02,3.12-0.01,4.68,0c1,0,1.39,0.38,1.41,1.36
	c0.03,1.11,0.03,1.11-1.09,1.11C56.85,25.85,53.88,25.85,50.92,25.85z"/>
<path class="st14" d="M32.62,26.47c0.9-0.19,4.81-0.06,5.71-0.09c0.78-0.02-0.39,3.32,1.85,3.32c1.12,0,21.14,0,21.6,0
	c2.24,0,1.72-3.31,2.27-3.32c1.1-0.02,2.19-0.01,3.29,0c2.41,0.03,4.08,1.54,4.08,3.77c0.01,14.24,0.01,28.49,0.01,42.73
	c0,0.84-0.18,1.63-0.81,2.29c-0.28,0.18-0.59,0.19-0.91,0.19c-10.36,0-20.72,0.01-31.08-0.01c-1.77,0-3.39-0.43-4.65-1.67
	c-0.99-0.98-1.55-2.14-1.55-3.51c0-14.27,0-28.54,0-42.8C32.42,27.06,32.37,26.73,32.62,26.47z"/>
<path class="st14" d="M33.54,26.36c0,14.34,0,28.67,0,43.01c0,2.21,2.2,4.35,4.5,4.54c1.33,0.11,2.65,0.08,3.98,0.09
	c9.1,0.01,18.2,0.01,27.3,0.01c-0.58,0.83-1.42,1.25-2.42,1.39c-0.2,0.03-0.4,0.03-0.59,0.03c-10.69,0-21.38,0-32.07,0
	c-1.58,0-2.73-0.67-3.46-2.03c-0.32-0.6-0.35-1.25-0.35-1.91c0-11.57,0-23.14,0-34.71c0-2.36-0.02-4.73,0.01-7.09
	C30.46,27.99,31.86,26.53,33.54,26.36z"/>
<g>
	<g>
		<path class="st21" d="M48.27,55.17c-2.13,0-4.15,0.01-6.16-0.01c-1.06-0.01-1.86-0.5-2.33-1.45c-0.46-0.93-0.35-1.84,0.25-2.66
			c0.55-0.76,1.34-1.05,2.26-1.05c1.96,0,3.92,0,5.99,0c0-1,0-1.96,0-2.92c0-1.05-0.01-2.09,0-3.14c0.02-1.55,1.12-2.7,2.57-2.69
			c1.42,0,2.55,1.12,2.57,2.63c0.04,1.88,0.01,3.77,0.02,5.66c0,0.13,0.02,0.25,0.04,0.47c1.67,0,3.31,0,4.95,0
			c0.42,0,0.84-0.02,1.26,0.01c1.45,0.09,2.53,1.22,2.51,2.61c-0.02,1.39-1.13,2.52-2.57,2.54c-1.75,0.03-3.51,0.01-5.26,0.01
			c-0.28,0-0.56,0-0.93,0c0,2.03-0.01,3.99,0,5.94c0,1.11-0.42,2-1.41,2.53c-1.69,0.91-3.71-0.31-3.74-2.27
			c-0.03-1.78-0.01-3.56-0.01-5.34C48.27,55.78,48.27,55.52,48.27,55.17z"/>
	</g>
</g>
</svg>
