<svg xmlns="http://www.w3.org/2000/svg" viewBox="0 0 309.56 309.56"><defs><style>.cls-1,.cls-2,.cls-3{fill:none;stroke-miterlimit:10;}.cls-1{stroke:#9f42f5;stroke-width:5px;}.cls-2{stroke:#1499db;stroke-width:4px;}.cls-3{stroke:#042354;stroke-width:10px;}</style></defs><g id="Capa_2" data-name="Capa 2"><g id="Capa_1-2" data-name="Capa 1"><circle class="cls-1" cx="154.78" cy="154.78" r="152.28"/><circle class="cls-2" cx="154.78" cy="154.78" r="140.43"/><path class="cls-3" d="M138.29,171.25c-13.67,0-26.58.08-39.49,0-6.77-.06-11.92-3.18-15-9.3-3-6-2.26-11.77,1.61-17.08C89,140,94,138.12,99.92,138.12c12.57,0,25.13,0,38.4,0,0-6.41,0-12.56,0-18.7,0-6.71-.06-13.42,0-20.13.11-9.94,7.18-17.28,16.5-17.26,9.07,0,16.32,7.17,16.5,16.82.23,12.08.09,24.16.12,36.24,0,.81.13,1.61.26,3h31.72c2.68,0,5.37-.1,8,.06,9.29.58,16.2,7.83,16.07,16.73a16.56,16.56,0,0,1-16.5,16.28c-11.24.19-22.48.05-33.72.05h-5.94c0,13,0,25.57,0,38.1,0,7.14-2.67,12.8-9,16.22-10.86,5.8-23.75-2-24-14.54-.22-11.41-.07-22.82-.08-34.23Z"/><circle class="cls-2" cx="154.78" cy="154.78" r="140.43"/></g></g></svg>