<svg xmlns="http://www.w3.org/2000/svg" viewBox="0 0 309.56 309.56"><defs><style>.cls-1,.cls-2{fill:none;}.cls-1{stroke:#9f42f5;stroke-width:5px;}.cls-1,.cls-2,.cls-3{stroke-miterlimit:10;}.cls-2{stroke:#1499db;stroke-width:4px;}.cls-3{fill:#042354;stroke:#042354;stroke-width:2px;}</style></defs><g id="Capa_2" data-name="Capa 2"><g id="Capa_1-2" data-name="Capa 1"><circle class="cls-1" cx="154.78" cy="154.78" r="152.28"/><circle class="cls-2" cx="154.78" cy="154.78" r="140.43"/><path class="cls-3" d="M175.4,195.25l-7.59-7.09c-14.69,9.92-30.94,12.78-48.32,7.78-13.36-3.84-23.77-11.89-31.31-23.53a56.19,56.19,0,1,1,92.54,3.15l7.5,7,1.63-1.55a2.34,2.34,0,0,1,3.71.08q16.91,17.24,33.8,34.5a9.71,9.71,0,0,1-.21,14.08c-1.84,1.82-3.69,3.64-5.54,5.44a9.73,9.73,0,0,1-13.88-.06q-16.93-17.21-33.82-34.48c-1.43-1.47-1.38-2.62.12-4.06C174.42,196.12,174.83,195.77,175.4,195.25ZM135.66,90.53a51.59,51.59,0,0,0-.57,103.17c27.83.26,51.81-22.28,52-51.1A51.54,51.54,0,0,0,135.66,90.53ZM178.5,198.58c.23.26.36.41.5.55q15.92,16.25,31.83,32.47a5.11,5.11,0,0,0,7.62.1c1.8-1.71,3.56-3.46,5.33-5.21,2.47-2.45,2.5-5.45.08-7.92Q210,204.38,196,190.21c-1.45-1.48-3-2.88-4.54-4.37Zm.32-6.76,5.65-6c-2.21-2.1-4.53-4.28-6.8-6.43l-5.71,6Z"/><path class="cls-3" d="M178.82,191.82,172,185.4l5.71-6c2.27,2.15,4.59,4.33,6.8,6.43Z"/><path class="cls-3" d="M135.54,188A45.84,45.84,0,1,1,181.33,142,45.88,45.88,0,0,1,135.54,188Zm31-18.92c8.59-9.26,13.84-26.06,7.14-42.49-6.81-16.69-23.16-26.73-41.4-25.52a41.19,41.19,0,0,0-37,50.25,40.58,40.58,0,0,0,9.16,17.86c.12-.76.2-1.28.3-1.8,1.91-10.47,7.5-18,17.46-22.14a2.92,2.92,0,0,1,3.27.46c1.17,1,2.42,1.81,3.65,2.69,4.1,2.91,10.28,2.3,13.75-.38.93-.72,1.83-1.49,2.68-2.29a2.54,2.54,0,0,1,2.95-.6,27.17,27.17,0,0,1,14.55,12.73A32.83,32.83,0,0,1,166.53,169Zm-30.95,14.32a40.68,40.68,0,0,0,25.9-9.31,2,2,0,0,0,.65-1.41,44.37,44.37,0,0,0-.75-5.88c-1.6-7.25-5.51-12.81-12.16-16.33a1.75,1.75,0,0,0-2.34.25c-4.36,3.81-9.47,4.88-15.06,3.79-3-.59-5.5-2.29-7.87-4.14a1.25,1.25,0,0,0-1.52-.19,22.68,22.68,0,0,0-8.5,6.94c-3.41,4.59-4.81,9.84-5.1,15.46a1.72,1.72,0,0,0,.72,1.62A41,41,0,0,0,135.58,183.35Z"/><path class="cls-3" d="M119.37,123.52c.09-4.85,1.95-9.63,7.1-12.38a18.42,18.42,0,0,1,18.25.09c4.25,2.3,6.4,6.21,6.78,10.94a23.59,23.59,0,0,1-6.92,19.09c-4.37,4.49-9.85,5.33-14.88,2.52a16.78,16.78,0,0,1-5-4.37A25.93,25.93,0,0,1,119.37,123.52ZM147,125c0-6-2.47-9.46-7.14-10.84a15.08,15.08,0,0,0-8.85,0c-4,1.24-6.48,3.94-6.9,8.16a19.09,19.09,0,0,0,5.31,15.43c3.79,4.06,8.27,4,12.15,0,.19-.19.37-.39.55-.59A20.36,20.36,0,0,0,147,125Z"/></g></g></svg>