<?xml version="1.0" encoding="utf-8"?>
<!-- Generator: Adobe Illustrator 24.0.0, SVG Export Plug-In . SVG Version: 6.00 Build 0)  -->
<svg version="1.1" id="Capa_1" xmlns="http://www.w3.org/2000/svg" xmlns:xlink="http://www.w3.org/1999/xlink" x="0px" y="0px"
	 viewBox="0 0 200 200" style="enable-background:new 0 0 200 200;" xml:space="preserve">
<style type="text/css">
	.st0{fill:none;stroke:#9F42F5;stroke-width:3.2177;stroke-miterlimit:10;}
	.st1{fill:none;stroke:#1499DB;stroke-width:2.5742;stroke-miterlimit:10;}
	.st2{fill:none;stroke:#9F42F5;stroke-width:3.2102;stroke-miterlimit:10;}
	.st3{fill:none;stroke:#1499DB;stroke-width:2.5682;stroke-miterlimit:10;}
	.st4{fill:#042354;}
	.st5{fill:none;stroke:#9F42F5;stroke-width:3.2219;stroke-miterlimit:10;}
	.st6{fill:none;stroke:#1499DB;stroke-width:2.5775;stroke-miterlimit:10;}
	.st7{fill:none;}
</style>
<circle class="st5" cx="99.99" cy="100.33" r="98.13"/>
<circle class="st6" cx="99.99" cy="100.33" r="90.49"/>
<g>
	<g>
		<path class="st4" d="M111.01,96.59c0.02,1.05-0.43,1.88-1.16,2.59c-2.9,2.82-5.79,5.65-8.69,8.47c-4.16,4.05-8.34,8.08-12.5,12.13
			c-1.84,1.79-3.73,1.8-5.56-0.01c-1.66-1.64-3.36-3.23-4.94-4.95c-1.5-1.64-3.21-3.08-4.7-4.73c-1.09-1.21-1.27-2.82-0.45-4.23
			c0.7-1.19,2.2-1.81,3.65-1.5c0.78,0.17,1.38,0.62,1.92,1.17c2.25,2.29,4.52,4.56,6.76,6.86c0.38,0.39,0.6,0.41,1,0.02
			c5.29-5.14,10.56-10.3,15.94-15.35c1.19-1.12,2.18-2.48,3.62-3.36c1.17-0.72,2.31-0.67,3.45-0.07
			C110.5,94.26,110.98,95.31,111.01,96.59z"/>
		<path class="st4" d="M87.36,73.13c-3.1,0-5.55-2.47-5.55-5.6c0-3.08,2.52-5.55,5.62-5.54c3.04,0.02,5.53,2.53,5.52,5.58
			C92.95,70.68,90.48,73.13,87.36,73.13z"/>
		<path class="st4" d="M150.7,70.83c-0.15-2.8-1.08-5.25-3.31-7.09c-2-1.65-4.26-2.88-6.58-3.98c-2.08-0.99-4.31,0.15-4.96,2.38
			c-0.3,1.05-0.07,1.98,0.7,2.76c1.25,1.27,2.68,1.48,4.31,0.8c1.43-0.6,2.23-0.37,3.18,0.86c1.04,1.36,1.84,2.85,2.04,4.57
			c0.25,2.14-0.28,4.18-1.06,6.13c-1.97,4.9-3.78,9.86-5.62,14.81c-0.1,0.26-0.18,0.53-0.46,0.69c-0.95,0.56-1.39,1.43-1.58,2.5
			c-0.35,1.99-0.91,3.9-2.2,5.51c-2.04,2.56-5.31,2.56-7.31-0.01c-1.24-1.59-1.94-3.43-2.36-5.38c-0.21-0.99-0.55-1.87-1.39-2.49
			c-0.16-0.12-0.21-0.31-0.28-0.48c-2.26-6.04-4.44-12.1-6.35-18.26c-0.99-3.2-0.16-5.89,2.38-8.09c0.79-0.68,1.57-0.9,2.53-0.37
			c1.1,0.61,2.25,0.51,3.38,0.06c1.64-0.66,2.42-2.26,1.96-3.95c-0.45-1.64-1.85-2.52-3.65-2.16c-1.84,0.37-3.59,1.09-5.32,1.8
			c-0.89,0.36-1.67,0.91-2.35,1.6c-3.51,3.55-4.61,7.82-3.2,12.54c1.75,5.85,3.76,11.63,5.68,17.43c0.23,0.7,0.47,1.38,0.25,2.14
			c-0.09,0.33-0.04,0.72,0.03,1.06c0.7,3.46,1.98,6.67,4.39,9.31c1.39,1.52,2.98,2.82,5.19,2.95c0.31,0.02,0.32,0.17,0.31,0.42
			c-0.05,1.48-0.15,2.95-0.4,4.41c-2.12,12.34-8.57,21.66-19.69,27.48c-9.58,5.01-19.64,5.61-29.81,1.98
			c-9.48-3.38-16.49-9.73-20.94-18.77c-4.49-9.13-4.92-18.62-1.86-28.26c0.84-2.64,2.09-5.15,3.57-7.52
			c4.36-6.98,10.3-12.08,17.94-15.19c1.3-0.53,2.64-0.92,3.97-1.38c-1.29-2.16-1.47-2.72-1.34-4.15c0.08-0.84,0.08-0.84-0.74-0.59
			c-8.71,2.61-15.85,7.51-21.47,14.64c-10.33,13.13-11.91,31.07-4.2,45.77l-0.05,0.03l0.07,0.03c0,0,0.02,0.03,0.05,0.1
			c0.26,0.5,0.54,0.99,0.82,1.48c0.09,0.15,0.17,0.3,0.26,0.43c0.66,1.11,1.51,2.48,2.33,3.51c0,0,0,0,0,0
			c3.47,4.67,7.69,8.55,12.77,11.45c10.87,6.2,22.42,7.67,34.29,3.77c15.94-5.24,25.49-16.42,28.92-32.83
			c0.43-2.03,0.56-4.1,0.67-6.17c0.01-0.24-0.11-0.58,0.35-0.64c1.42-0.19,2.57-0.97,3.64-1.85c3.13-2.57,4.55-6.06,5.36-9.9
			c0.19-0.92-0.05-1.85,0.26-2.75c1.84-5.23,3.63-10.47,5.48-15.69C150.19,75.87,150.84,73.42,150.7,70.83z"/>
	</g>
</g>
</svg>
