<?xml version="1.0" encoding="utf-8"?>
<!-- Generator: Adobe Illustrator 24.0.0, SVG Export Plug-In . SVG Version: 6.00 Build 0)  -->
<svg version="1.1" id="Capa_1" xmlns="http://www.w3.org/2000/svg" xmlns:xlink="http://www.w3.org/1999/xlink" x="0px" y="0px"
	 viewBox="0 0 101.64 101.64" style="enable-background:new 0 0 101.64 101.64;" xml:space="preserve">
<style type="text/css">
	.st0{fill:none;stroke:#9F42F5;stroke-width:3.2177;stroke-miterlimit:10;}
	.st1{fill:none;stroke:#1499DB;stroke-width:2.5742;stroke-miterlimit:10;}
	.st2{fill:none;stroke:#9F42F5;stroke-width:3.2102;stroke-miterlimit:10;}
	.st3{fill:none;stroke:#1499DB;stroke-width:2.5682;stroke-miterlimit:10;}
	.st4{fill:#042354;}
	.st5{fill:none;stroke:#9F42F5;stroke-width:3.2219;stroke-miterlimit:10;}
	.st6{fill:none;stroke:#1499DB;stroke-width:2.5775;stroke-miterlimit:10;}
	.st7{fill:none;}
	.st8{fill:#383838;}
	.st9{fill:none;stroke:#FFFFFF;stroke-width:3.4545;stroke-miterlimit:10;}
	.st10{fill:#7F32C8;}
	.st11{fill:#FFFFFF;}
	.st12{fill:none;stroke:#9F42F5;stroke-width:1.6417;stroke-miterlimit:10;}
	.st13{fill:none;stroke:#1499DB;stroke-width:1.3134;stroke-miterlimit:10;}
	.st14{fill:#FEFEFE;}
	.st15{fill:#FDFDFD;}
	.st16{fill:#EBEEF0;}
	.st17{fill:#607D8A;}
	.st18{fill:#455A64;}
	.st19{fill:#FEC007;}
	.st20{fill:#546E79;}
	.st21{fill:none;stroke:#042354;stroke-width:1.5605;stroke-miterlimit:10;}
</style>
<g>
	<circle class="st12" cx="50.82" cy="50.82" r="50"/>
	<circle class="st13" cx="50.82" cy="50.82" r="46.11"/>
</g>
<g>
	<path class="st4" d="M66.75,84.28c-10.13,0-20.25,0-30.38,0c-1.13-0.28-1.72-1.08-1.65-2.26c0.13-2.34,1.94-4.36,4.26-4.67
		c0.7-0.09,1.04-0.38,1.19-1.06c0.23-0.99,0.55-1.95,0.83-2.93c0.18-0.62,0.15-0.65-0.49-0.65c-4.52,0-9.04,0-13.56,0
		c-0.36,0-0.73-0.01-1.09-0.06c-1.97-0.23-3.3-1.21-3.76-3.21c0-13.66,0-27.31,0-40.97c0.22-1.28,1-2.14,2.08-2.8
		c0.33-0.2,0.71-0.14,1.03-0.31c17.49,0,34.98,0,52.47,0c1.89,0.26,2.99,1.36,3.34,3.22c0,13.62,0,27.23,0,40.85
		c-0.57,2.55-2.59,3.27-4.56,3.27c-4.54,0.01-9.08,0-13.61,0c-0.91,0-0.91,0-0.66,0.88c0.27,0.96,0.57,1.91,0.81,2.87
		c0.13,0.54,0.42,0.79,0.97,0.87c2.39,0.34,4.05,2.03,4.4,4.41c0.12,0.8-0.04,1.51-0.65,2.1C67.43,84.11,67.09,84.19,66.75,84.28z"
		/>
	<path class="st14" d="M51.56,27.32c8.36,0,16.72,0,25.08,0c1.7,0,2.42,0.72,2.42,2.41c0,12.79,0,25.58,0,38.37
		c0,1.73-0.71,2.44-2.44,2.44c-16.7,0-33.4,0-50.1,0c-1.74,0-2.45-0.7-2.45-2.43c0-12.79,0-25.58,0-38.37
		c0-1.69,0.72-2.41,2.42-2.41C34.84,27.32,43.2,27.32,51.56,27.32z"/>
	<path class="st14" d="M42.08,77.35c0.38-1.33,0.75-2.65,1.13-3.97c0.25-0.88,0.25-0.87,1.17-0.87c4.91,0,9.81,0.01,14.72-0.01
		c0.45,0,0.63,0.14,0.74,0.56c0.35,1.31,0.72,2.62,1.1,3.92c0.09,0.32,0.09,0.44-0.29,0.44c-6.11-0.01-12.23-0.01-18.34-0.01
		C42.24,77.39,42.19,77.37,42.08,77.35z"/>
	<path class="st14" d="M51.49,82.32c-4.71,0-9.43-0.01-14.14,0.01c-0.5,0-0.56-0.15-0.46-0.58c0.33-1.47,1.49-2.38,3.15-2.38
		c2.57-0.01,5.14,0,7.7,0c5.1,0,10.2,0,15.29,0c1.71,0,2.91,0.94,3.21,2.45c0.08,0.42-0.03,0.51-0.44,0.51
		C61.04,82.32,56.27,82.32,51.49,82.32z"/>
	<path class="st4" d="M51.55,64.63c-7.36,0-14.73-0.04-22.09,0.02c-2.31,0.02-3.47-1.51-3.46-3.49c0.04-9.47,0.02-18.95,0.02-28.42
		c0-2.32,1.15-3.47,3.46-3.47c14.73,0,29.45,0,44.18,0c2.28,0,3.44,1.16,3.44,3.42c0,9.55,0,19.1,0,28.65
		c0,1.67-0.81,2.81-2.25,3.19c-0.37,0.1-0.76,0.08-1.14,0.08C66.31,64.63,58.93,64.63,51.55,64.63z"/>
	<path class="st4" d="M51.5,68.57c-1.47,0-2.95,0-4.42,0c-0.23,0-0.47,0-0.68-0.06c-0.44-0.11-0.68-0.42-0.7-0.87
		c-0.02-0.47,0.2-0.82,0.66-0.96c0.25-0.08,0.53-0.08,0.79-0.08c2.95-0.01,5.9,0,8.84,0c0.98,0,1.45,0.32,1.45,0.99
		c0,0.67-0.46,0.98-1.45,0.98C54.48,68.57,52.99,68.57,51.5,68.57z"/>
	<path class="st14" d="M51.53,62.67c-7.36,0-14.72,0-22.09,0c-1.18,0-1.47-0.28-1.47-1.44c0-9.51,0-19.02,0-28.53
		c0-1.12,0.32-1.45,1.43-1.45c14.76,0,29.53,0,44.29,0c1.12,0,1.44,0.32,1.44,1.43c0,9.53,0,19.06,0,28.59c0,1.1-0.3,1.4-1.4,1.4
		C66.34,62.67,58.94,62.67,51.53,62.67z"/>
	<path class="st4" d="M51.55,58.74c-3.47,0-6.94-0.02-10.41,0.01c-1.01,0.01-1.69-0.4-2.2-1.26c-3.29-5.64-2.71-12.32,1.56-17.25
		c2.7-3.13,6.15-4.76,10.27-5c4.02-0.23,7.54,1.03,10.55,3.68c5.56,4.9,6.42,12.88,2.74,18.78c-0.46,0.73-1.11,1.05-1.97,1.04
		C58.56,58.73,55.06,58.74,51.55,58.74z"/>
	<path class="st14" d="M54.96,56.78c0.59-1.2,0.75-2.39,0.16-3.54c-1.51-2.96-2.86-6-4.33-8.98c-0.36-0.73-1.21-1.09-1.99-0.89
		c-0.84,0.23-1.39,0.94-1.37,1.82c0.07,2.89,0.14,5.79,0.21,8.68c0.02,0.65-0.1,1.31,0.11,1.94c0.1,0.3,0.22,0.6,0.35,0.96
		c-1.28,0-2.52,0-3.75,0c-1.05,0-2.11,0-3.16,0c-0.2,0-0.38,0.03-0.53-0.22c-0.97-1.63-1.58-3.38-1.8-5.28
		c-0.04-0.37,0.09-0.4,0.39-0.39c0.75,0.02,1.5,0.01,2.24,0c0.74-0.01,1.18-0.37,1.19-0.96c0.01-0.63-0.42-0.99-1.2-0.99
		c-0.75-0.01-1.5-0.01-2.24,0c-0.28,0.01-0.41-0.04-0.38-0.37c0.26-2.51,1.19-4.73,2.76-6.69c0.15-0.19,0.24-0.17,0.39-0.01
		c0.26,0.28,0.53,0.56,0.81,0.81c0.47,0.42,1.05,0.43,1.44,0.04c0.39-0.39,0.36-0.96-0.07-1.44c-0.08-0.09-0.16-0.16-0.24-0.25
		c-0.8-0.81-0.8-0.81,0.11-1.46c1.79-1.29,3.78-2.06,5.97-2.34c0.38-0.05,0.55,0,0.53,0.44c-0.04,0.78-0.02,1.57,0,2.36
		c0.01,0.47,0.22,0.85,0.72,0.98c0.43,0.1,0.79-0.01,1.05-0.39c0.17-0.25,0.18-0.54,0.18-0.83c0-0.75,0.01-1.5,0-2.24
		c-0.01-0.29,0.09-0.36,0.36-0.33c2.54,0.3,4.8,1.24,6.77,2.86c0.17,0.14,0.2,0.24,0.03,0.4c-0.29,0.27-0.58,0.56-0.85,0.86
		c-0.42,0.46-0.42,1.05-0.01,1.43c0.39,0.37,0.93,0.35,1.39-0.06c0.13-0.11,0.25-0.24,0.37-0.36c0.71-0.72,0.72-0.72,1.29,0.08
		c1.3,1.81,2.09,3.81,2.35,6.03c0.05,0.4-0.05,0.49-0.44,0.48c-0.75-0.03-1.5-0.01-2.24-0.01c-0.74,0.01-1.16,0.37-1.16,0.98
		c0,0.59,0.44,0.97,1.18,0.98c0.77,0.01,1.53,0.02,2.3,0c0.32-0.01,0.37,0.1,0.34,0.39c-0.2,1.9-0.81,3.65-1.8,5.27
		c-0.09,0.14-0.17,0.23-0.35,0.23C59.73,56.78,57.38,56.78,54.96,56.78z"/>
	<path class="st14" d="M51.56,56.77c-1.06,0-1.95-0.86-1.96-1.91c-0.01-1.08,0.83-1.97,1.88-1.99c1.11-0.02,2.02,0.87,2.02,1.98
		C53.51,55.88,52.61,56.77,51.56,56.77z"/>
	<path class="st15" d="M51.8,50.91c-0.81-0.04-1.49,0.14-2.3,0.57c0-0.96,0-1.8,0-2.65c0-0.86,0-1.72,0-2.74
		C50.29,47.76,51.03,49.3,51.8,50.91z"/>
</g>
</svg>
