<?xml version="1.0" encoding="utf-8"?>
<!-- Generator: Adobe Illustrator 24.0.0, SVG Export Plug-In . SVG Version: 6.00 Build 0)  -->
<svg version="1.1" id="Capa_1" xmlns="http://www.w3.org/2000/svg" xmlns:xlink="http://www.w3.org/1999/xlink" x="0px" y="0px"
	 viewBox="0 0 101.64 101.64" style="enable-background:new 0 0 101.64 101.64;" xml:space="preserve">
<style type="text/css">
	.st0{fill:none;stroke:#9F42F5;stroke-width:3.2177;stroke-miterlimit:10;}
	.st1{fill:none;stroke:#1499DB;stroke-width:2.5742;stroke-miterlimit:10;}
	.st2{fill:none;stroke:#9F42F5;stroke-width:3.2102;stroke-miterlimit:10;}
	.st3{fill:none;stroke:#1499DB;stroke-width:2.5682;stroke-miterlimit:10;}
	.st4{fill:#042354;}
	.st5{fill:none;stroke:#9F42F5;stroke-width:3.2219;stroke-miterlimit:10;}
	.st6{fill:none;stroke:#1499DB;stroke-width:2.5775;stroke-miterlimit:10;}
	.st7{fill:none;}
	.st8{fill:#383838;}
	.st9{fill:none;stroke:#FFFFFF;stroke-width:3.4545;stroke-miterlimit:10;}
	.st10{fill:#7F32C8;}
	.st11{fill:#FFFFFF;}
	.st12{fill:none;stroke:#9F42F5;stroke-width:1.6417;stroke-miterlimit:10;}
	.st13{fill:none;stroke:#1499DB;stroke-width:1.3134;stroke-miterlimit:10;}
	.st14{fill:#FEFEFE;}
	.st15{fill:#FDFDFD;}
	.st16{fill:#EBEEF0;}
	.st17{fill:#607D8A;}
	.st18{fill:#455A64;}
	.st19{fill:#FEC007;}
	.st20{fill:#546E79;}
	.st21{fill:none;stroke:#042354;stroke-width:1.5605;stroke-miterlimit:10;}
</style>
<circle class="st12" cx="50.82" cy="50.82" r="50"/>
<circle class="st13" cx="50.82" cy="50.82" r="46.11"/>
<g>
	<path class="st4" d="M69.87,80.31c-12.96,0-25.92,0-38.88,0c-1.62-0.34-2.59-1.31-2.93-2.93c0-16.32,0-32.63,0-48.95
		c0.4-2.1,1.75-3.21,3.91-3.21c1.81,0,3.62-0.01,5.43,0.01c0.46,0,0.75-0.15,0.99-0.56c0.82-1.36,2.05-2.03,3.65-2.03
		c1.17,0,2.34,0,3.51,0c0.35,0,0.64-0.07,0.87-0.37c0.83-1.1,1.89-1.83,3.31-1.93c0.55,0,1.09,0,1.64,0
		c1.42,0.1,2.48,0.83,3.31,1.93c0.23,0.31,0.52,0.37,0.87,0.36c1.13-0.01,2.26,0.01,3.4,0c1.67-0.02,2.95,0.66,3.79,2.1
		c0.22,0.37,0.5,0.49,0.91,0.49c1.87-0.01,3.75-0.01,5.62,0c2.21,0.01,3.9,1.67,3.92,3.88c0.02,2.75,0,5.5,0.01,8.25
		c0,0.21-0.03,0.43,0.03,0.64c0.21,0.01,0.29-0.17,0.41-0.29c0.98-0.98,1.96-1.96,2.94-2.94c3.35-3.34,8.58-2.59,10.88,1.54
		c0.36,0.65,0.43,1.36,0.56,2.06c0,0.7,0,1.41,0,2.11c-0.17,1.59-0.99,2.82-2.1,3.92c-4.05,4.03-8.09,8.08-12.14,12.11
		c-0.42,0.42-0.6,0.85-0.6,1.44c0.02,6.16,0.02,12.33,0,18.49c0,1.58-0.69,2.81-2.14,3.56C70.67,80.22,70.26,80.21,69.87,80.31z"/>
	<path class="st16" d="M70.54,59.65c0,0.88,0,1.63,0,2.39c0,4.68,0,9.37,0,14.05c0,1.33-0.41,1.73-1.76,1.73
		c-12.16,0-24.32,0-36.47,0c-1.35,0-1.76-0.4-1.76-1.73c0-15.51,0-31.03,0-46.54c0-1.3,0.41-1.7,1.72-1.7
		c1.74,0,3.47,0.02,5.21-0.01c0.48-0.01,0.61,0.14,0.55,0.58c-0.03,0.23-0.02,0.47,0,0.7c0.06,0.69,0.5,1.14,1.19,1.22
		c0.21,0.02,0.43,0.02,0.64,0.02c7.12,0,14.25,0,21.37,0c1.46,0,1.86-0.37,1.81-1.84c-0.02-0.57,0.13-0.7,0.69-0.69
		c1.77,0.04,3.55,0.01,5.33,0.02c0.98,0,1.47,0.48,1.47,1.47c0.01,3.77,0,7.53,0.01,11.3c0,0.29-0.08,0.51-0.29,0.72
		c-5.52,5.51-11.04,11.04-16.57,16.55c-0.39,0.39-0.61,0.81-0.74,1.34c-0.76,3.12-1.54,6.22-2.32,9.33
		c-0.3,1.19,0.45,1.97,1.65,1.67c3.23-0.79,6.45-1.59,9.67-2.39c0.37-0.09,0.65-0.3,0.92-0.57c2.46-2.48,4.93-4.95,7.4-7.42
		C70.33,59.81,70.39,59.77,70.54,59.65z"/>
	<path class="st16" d="M56.76,58.39c0.16-0.17,0.28-0.3,0.4-0.42c5.56-5.56,11.12-11.11,16.66-16.68c0.35-0.35,0.52-0.4,0.89-0.01
		c1.62,1.67,3.26,3.3,4.92,4.93c0.32,0.31,0.3,0.47,0,0.78c-5.59,5.58-11.18,11.16-16.76,16.75c-0.34,0.34-0.44,0.33-0.65-0.12
		C61.09,61.21,59.25,59.51,56.76,58.39z"/>
	<path class="st16" d="M50.52,27.85c-3.12,0-6.25-0.01-9.37,0.01c-0.47,0-0.64-0.13-0.58-0.59c0.03-0.19,0.01-0.39,0.02-0.58
		c0.02-0.9,0.42-1.3,1.34-1.31c1.58-0.01,3.16-0.02,4.74,0c0.77,0.01,1.29-0.28,1.6-1.01c0.43-1,1.24-1.53,2.3-1.52
		c1.03,0.01,1.83,0.54,2.24,1.51c0.31,0.72,0.82,1.03,1.6,1.02c1.56-0.02,3.12-0.01,4.68,0c1,0,1.39,0.38,1.41,1.36
		c0.03,1.11,0.03,1.11-1.09,1.11C56.45,27.85,53.49,27.85,50.52,27.85z"/>
	<path class="st16" d="M85.53,39.31c-0.03,1.14-0.37,2.09-1.13,2.87c-0.77,0.8-1.58,1.57-2.35,2.37c-0.24,0.26-0.36,0.2-0.58-0.02
		c-1.69-1.71-3.38-3.4-5.09-5.09c-0.25-0.25-0.32-0.4-0.02-0.68c0.82-0.77,1.58-1.63,2.42-2.37c1.29-1.14,2.79-1.37,4.35-0.67
		C84.68,36.42,85.43,37.7,85.53,39.31z"/>
	<path class="st16" d="M53.61,66.97c0.51-2.05,1.02-4.11,1.53-6.16c0.06-0.26,0.2-0.27,0.43-0.18c2.2,0.86,3.74,2.39,4.64,4.58
		c0.15,0.36,0.01,0.49-0.32,0.57c-1.98,0.49-3.96,0.98-5.93,1.48C53.68,67.32,53.53,67.31,53.61,66.97z"/>
</g>
</svg>
