<?xml version="1.0" encoding="utf-8"?>
<!-- Generator: Adobe Illustrator 25.4.1, SVG Export Plug-In . SVG Version: 6.00 Build 0)  -->
<svg version="1.1" id="Capa_1" xmlns="http://www.w3.org/2000/svg" xmlns:xlink="http://www.w3.org/1999/xlink" x="0px" y="0px"
	 viewBox="0 0 200 200" style="enable-background:new 0 0 200 200;" xml:space="preserve">
<style type="text/css">
	.st0{fill:none;stroke:#9F42F5;stroke-width:3.2177;stroke-miterlimit:10;}
	.st1{fill:none;stroke:#1499DB;stroke-width:2.5742;stroke-miterlimit:10;}
	.st2{fill:none;stroke:#9F42F5;stroke-width:3.2102;stroke-miterlimit:10;}
	.st3{fill:none;stroke:#1499DB;stroke-width:2.5682;stroke-miterlimit:10;}
	.st4{fill:#042354;}
	.st5{fill:none;stroke:#9F42F5;stroke-width:3.2219;stroke-miterlimit:10;}
	.st6{fill:none;stroke:#1499DB;stroke-width:2.5775;stroke-miterlimit:10;}
	.st7{fill:none;}
	.st8{fill:#383838;}
	.st9{fill:none;stroke:#FFFFFF;stroke-width:3.4545;stroke-miterlimit:10;}
	.st10{fill:#7F32C8;}
	.st11{fill:#FFFFFF;}
	.st12{fill:none;stroke:#042354;stroke-width:3;stroke-miterlimit:10;}
	.st13{fill:#FBFBFB;}
	.st14{fill:#FFFFFF;stroke:#042354;stroke-width:3;stroke-miterlimit:10;}
</style>
<circle class="st1" cx="100.41" cy="100.51" r="90.37"/>
<circle class="st0" cx="100.41" cy="100.51" r="98"/>
<g>
	<path class="st12" d="M80.73,30.76c0.81-0.55,1.86-0.27,2.69-0.75c1.34,0,2.69,0,4.03,0c0.97,0.26,1.98,0.08,2.96,0.26
		c0.47,0.09,0.97,0.04,1.27,0.52c7.04,2.29,11.55,6.98,13.15,14.22c1.27,5.73,0.93,11.45-0.89,17.05c-1.78,5.47-4.9,10.09-9,14.07
		c-0.67,0.88-5.31,4.66-7.34,5.72c-1.4,0.73-2.65,0.7-3.84-0.35c-1.44-1.6-3.17-2.88-4.78-4.29c-3.51-3.07-5.99-6.86-7.96-11.02
		c-2.32-4.89-3.36-10.1-3.2-15.5c0.1-3.21,0.44-6.41,1.63-9.47c1.99-5.16,5.71-8.43,10.84-10.23
		C80.44,30.94,80.63,30.94,80.73,30.76z"/>
	<path class="st12" d="M139.6,62.51c5.55-1.25,10.87-0.49,15.83,2.21c6.75,3.67,10.15,9.62,11.03,17.1
		c1.51,12.79-2.58,23.6-11.76,32.54c-0.43,0.65-5.72,5.09-8.48,6.46c-1.4,0.69-2.63,0.69-3.84-0.3c-2.02-1.89-4.29-3.5-6.28-5.43
		c-6.29-6.09-9.99-13.54-11.58-22.08c-0.91-4.9-0.77-9.81,0.26-14.65c1.63-7.64,6.07-12.9,13.57-15.42
		C138.77,62.81,139.23,62.78,139.6,62.51z"/>
	<path class="st4" d="M142.81,120.2c1.04,0.78,2.03,0.71,3.2,0.1c3.15-1.63,6-3.65,8.69-5.94c2.63,0.7,5.09,1.72,7.02,3.73
		c1.76,1.82,1.76,4.03-0.02,5.84c-2.57,2.62-5.91,3.69-9.36,4.33c-6.74,1.24-13.44,1.11-19.99-1.19c-1.87-0.66-3.6-1.59-5.02-3.02
		c-1.94-1.96-1.92-4.17,0.03-6.14c1.06-1.06,2.32-1.81,3.67-2.44c0.75-0.35,0.88-0.72,0.08-1.17c-0.19-0.11-0.37-0.25-0.55-0.38
		c-1.61-1.13-1.65-2.27-0.11-3.53c0.8-0.3,1.12,0.39,1.52,0.8c2.53,2.58,5.16,5.06,8.08,7.2
		C140.95,119.04,141.97,119.47,142.81,120.2z"/>
	<path class="st4" d="M80,88.63c-2.91-1.92-6.05-3.29-9.44-4.09c-1.5-2.59-1.13-4.33,1.27-6.11c1.5-1.11,3.25-1.66,4.93-2.38
		c0.62-0.36,0.99,0.08,1.37,0.43c1.89,1.73,3.91,3.28,6.09,4.64c1,0.82,1.97,0.83,3.15,0.21c2.74-1.43,5.21-3.22,7.57-5.18
		c2.14,0.56,4.12,1.42,5.82,2.88c1.82,1.57,1.96,3.78,0.34,5.52c-0.87,0.93-1.89,1.63-3.04,2.14c-0.59,0.26-0.87,0.47-0.35,1.14
		c0.57,0.74,0.6,1.61-0.15,2.29c-0.74,0.68-1.64,0.82-2.43,0.16c-1.72-1.43-3.6-2.06-5.81-1.4c-0.12,0.04-0.27,0-0.4,0.01
		C85.93,89.29,82.97,88.88,80,88.63z"/>
	<path class="st4" d="M129.38,127.42c-0.02,0.87-0.49,1.42-1.26,1.72c-3.42,1.31-6.84,2.62-10.26,3.9
		c-1.04,0.39-1.87,0.07-2.32-0.94c-0.47-1.06,0.02-2.08,1.26-2.56c2.41-0.94,4.84-1.83,7.27-2.74c0.92-0.35,1.82-0.77,2.76-1.02
		C128.3,125.37,129.41,126.13,129.38,127.42z"/>
	<path class="st4" d="M127.49,108.57c-0.04,1.27-1.53,2.21-2.61,1.52c-3.19-2.04-6.34-4.16-9.46-6.32
		c-0.83-0.58-1.19-1.51-0.47-2.46c0.69-0.91,1.59-1.11,2.58-0.45c2.97,1.98,5.95,3.95,8.9,5.95
		C127.04,107.22,127.56,107.73,127.49,108.57z"/>
	<path class="st4" d="M100.63,139.41c-0.92,0-1.56-0.42-1.8-1.3c-0.25-0.94,0.12-1.72,1.02-2.08c2.39-0.98,4.81-1.89,7.23-2.82
		c1.08-0.42,2.16-0.84,3.26-1.2c0.95-0.31,1.84-0.11,2.26,0.87c0.41,0.97,0.2,1.98-0.82,2.39c-3.56,1.43-7.16,2.75-10.74,4.1
		C100.91,139.41,100.77,139.39,100.63,139.41z"/>
	<path class="st4" d="M101.66,90.76c0.58-0.03,1.05,0.22,1.5,0.52c2.79,1.87,5.59,3.72,8.38,5.59c1.21,0.82,1.55,1.89,0.92,2.82
		c-0.59,0.89-1.64,1.03-2.85,0.24c-2.85-1.85-5.68-3.75-8.5-5.65c-0.33-0.22-0.62-0.52-0.86-0.84c-0.41-0.53-0.53-1.11-0.2-1.76
		C100.4,91.03,100.92,90.69,101.66,90.76z"/>
	<path class="st4" d="M96.3,140.36c-0.02,0.5-0.56,1.02-1.3,1.31c-3.34,1.29-6.68,2.58-10.04,3.8c-1.26,0.46-2.3,0.01-2.56-0.97
		c-0.32-1.19,0.17-1.98,1.32-2.41c3.35-1.26,6.68-2.57,10.04-3.8C95.05,137.8,96.33,138.71,96.3,140.36z"/>
	<path class="st4" d="M99.29,49.46c0.28,7.36-5.93,13.5-13.36,13.59c-7.28,0.09-13.57-6.25-13.52-13.54
		c0.06-7.21,6.16-13.35,13.48-13.4C93.07,36.07,99.61,42.43,99.29,49.46z"/>
	<path class="st4" d="M144.47,99.37c-8.22,0.28-15.37-6.69-15.32-15.33c0.05-8.36,6.66-15.17,15.27-15.19
		c8.91-0.02,15.29,6.99,15.35,15.34C159.83,92.39,152.8,99.65,144.47,99.37z"/>
	<path class="st13" d="M86.69,39.13c5.35,0.46,9.76,5.07,9.87,10.31c0.11,5.07-4.3,9.91-9.5,10.46c-5.31,0.76-9.74-3.02-10.98-6.96
		c-1.44-4.56-0.21-8.51,3.52-11.71C81.54,39.56,84,38.91,86.69,39.13z"/>
	<path class="st13" d="M143.79,72.23c8.01-0.17,14.46,7.55,12.36,14.78c-1.52,5.22-6.78,9.17-12.07,9.08
		c-7.66-0.3-11.79-6.85-11.67-11.82c0.07-3.25,1.14-6.02,3.41-8.48C137.9,73.52,140.64,72.51,143.79,72.23z"/>
	<ellipse class="st4" cx="64.27" cy="151.01" rx="18.5" ry="8.5"/>
	<path class="st14" d="M59.78,84.57c3.32-0.87,6.65-0.64,9.99-0.13c0.26,0.04,0.52,0.07,0.79,0.1c0.49-0.53,9.46,3.53,9.44,4.09
		c5.48,4.14,8.76,9.65,9.77,16.39c2.18,14.57-1.92,27.14-12.29,37.63c-0.25,0.25-7.38,6.62-10.66,8.27
		c-1.68,0.85-6.91-2.84-8.18-3.8c-4.57-3.42-7.96-7.82-10.76-12.7c-2.71-4.73-4.7-9.77-5.47-15.19c-0.99-7.01-1.08-14.02,1.53-20.74
		c2.71-6.97,7.69-11.6,14.96-13.64C59.2,84.78,59.53,84.78,59.78,84.57z"/>
	<g>
		<g>
			<path class="st4" d="M65.31,91.85c-9.86-0.1-17.48,7.52-17.69,17.11c-0.2,9.35,7.79,17.92,17.32,17.56
				c9.3,0.33,17.21-7.6,17.42-16.79C82.6,99.81,74.78,91.95,65.31,91.85z M68.76,122.09c-1.48,0.48-2.99,0.82-4.58,0.67
				c-3.1-0.29-5.8-1.34-8.04-3.39c-6.1-5.57-6.07-14.5-0.06-20.12c2.53-2.36,5.47-3.46,8.97-3.61c6.92,0.28,13.08,6.09,13.57,12.43
				C79.12,114.55,74.76,120.15,68.76,122.09z"/>
		</g>
	</g>
</g>
</svg>
