<?xml version="1.0" encoding="utf-8"?>
<!-- Generator: Adobe Illustrator 24.0.0, SVG Export Plug-In . SVG Version: 6.00 Build 0)  -->
<svg version="1.1" id="Capa_1" xmlns="http://www.w3.org/2000/svg" xmlns:xlink="http://www.w3.org/1999/xlink" x="0px" y="0px"
	 viewBox="0 0 200 200" style="enable-background:new 0 0 200 200;" xml:space="preserve">
<style type="text/css">
	.st0{fill:none;stroke:#9F42F5;stroke-width:3.2177;stroke-miterlimit:10;}
	.st1{fill:none;stroke:#1499DB;stroke-width:2.5742;stroke-miterlimit:10;}
	.st2{fill:none;stroke:#9F42F5;stroke-width:3.2102;stroke-miterlimit:10;}
	.st3{fill:none;stroke:#1499DB;stroke-width:2.5682;stroke-miterlimit:10;}
	.st4{fill:#042354;}
	.st5{fill:none;stroke:#9F42F5;stroke-width:3.2219;stroke-miterlimit:10;}
	.st6{fill:none;stroke:#1499DB;stroke-width:2.5775;stroke-miterlimit:10;}
	.st7{fill:none;}
</style>
<circle class="st5" cx="99.64" cy="100.33" r="98.13"/>
<circle class="st6" cx="99.64" cy="100.33" r="90.49"/>
<g>
	<g>
		<path class="st4" d="M148.96,147.11c-0.65,1.86-1.98,2.53-3.93,2.53c-16.02-0.04-32.03-0.03-48.05-0.01
			c-1.35,0-2.48-0.35-3.21-1.54c-1.32-2.15,0.24-4.76,2.87-4.78c4.72-0.03,9.44-0.01,14.15-0.01c10.24,0,20.48,0,30.72,0
			c0.32,0,0.64,0,0.98,0c0.05-0.16,0.11-0.28,0.11-0.4c-0.08-7.48-0.25-14.94-1.52-22.35c-0.56-3.24-2.05-5.89-4.5-8.05
			c-3.67-3.24-7.92-5.52-12.34-7.53c-5.6,8.78-13.11,13.61-23.82,11.78c0.28,1.79,0.64,3.58,0.81,5.38
			c1.1,11.88-6.83,23.31-18.35,26.5c-15.01,4.16-29.99-5.55-32.28-20.94c-2.14-14.3,8.56-27.77,22.99-28.96
			c7.98-0.66,14.72,2.04,20.49,7.46c2.63,2.48,5.68,4.18,9.34,4.56c4.79,0.49,8.71-1.35,12.03-4.66c1.77-1.76,3.11-3.83,4.2-6.06
			c1.05-2.15,2.49-2.73,4.72-1.83c6.24,2.49,12.09,5.6,17.07,10.21c3.45,3.2,5.25,7.18,5.99,11.76c0.86,5.3,1.22,10.64,1.37,16
			c0.02,0.57,0.11,1.14,0.16,1.7C148.96,140.95,148.96,144.03,148.96,147.11z M75.89,143.28c10.37,0.04,19.1-8.52,19.15-18.78
			c0.05-10.9-8.37-19.49-19.16-19.56c-10.44-0.06-19.13,8.52-19.18,18.94C56.63,134.68,65.1,143.23,75.89,143.28z"/>
		<path class="st4" d="M106.78,51.02c1.76,0.34,3.56,0.53,5.26,1.05c8.71,2.65,13.85,8.7,15.67,17.45
			c2.57,12.39-3.92,24.84-15.38,30.08c-1.9,0.87-3.71,0.33-4.51-1.34c-0.8-1.68-0.07-3.45,1.8-4.35c7.7-3.71,11.71-9.92,12.3-18.36
			c0.52-7.39-3.34-14.2-9.8-16.7c-6.52-2.53-13.02-2.38-18.83,1.96c-4.22,3.15-6.01,7.75-6.33,12.89
			c-0.36,5.98,1.82,11.19,5.31,15.9c3.51,4.75,8.13,8.24,13.11,11.31c0.71,0.44,1.45,0.83,2.14,1.3c1.4,0.95,1.81,2.72,0.99,4.16
			c-0.82,1.44-2.61,2.09-4.07,1.27c-8-4.47-15.15-9.91-19.74-18.1c-2.71-4.83-4.39-10.01-4.07-15.62
			c0.51-8.72,4.03-15.76,11.91-20.16c2.75-1.54,5.76-2.31,8.89-2.59c0.18-0.02,0.36-0.11,0.54-0.16
			C103.57,51.02,105.18,51.02,106.78,51.02z"/>
		<path class="st4" d="M72.69,127.27c-2.61,0-5.08,0.02-7.55-0.01c-1.29-0.01-2.28-0.61-2.86-1.78c-0.57-1.14-0.43-2.25,0.31-3.26
			c0.68-0.93,1.64-1.28,2.77-1.28c2.4,0,4.8,0,7.34,0c0-1.23,0-2.4,0-3.57c0-1.28-0.01-2.57,0-3.85c0.02-1.9,1.37-3.3,3.15-3.3
			c1.73,0,3.12,1.37,3.15,3.22c0.04,2.31,0.02,4.62,0.02,6.93c0,0.15,0.03,0.31,0.05,0.58c2.04,0,4.05,0,6.06,0
			c0.51,0,1.03-0.02,1.54,0.01c1.78,0.11,3.1,1.5,3.07,3.2c-0.03,1.7-1.39,3.08-3.15,3.11c-2.15,0.04-4.3,0.01-6.45,0.01
			c-0.35,0-0.69,0-1.13,0c0,2.49-0.01,4.89,0,7.28c0.01,1.36-0.51,2.45-1.73,3.1c-2.07,1.11-4.54-0.38-4.59-2.78
			c-0.04-2.18-0.01-4.36-0.02-6.54C72.69,128.02,72.69,127.7,72.69,127.27z"/>
	</g>
</g>
</svg>
