<?xml version="1.0" encoding="utf-8"?>
<!-- Generator: Adobe Illustrator 24.0.0, SVG Export Plug-In . SVG Version: 6.00 Build 0)  -->
<svg version="1.1" id="Capa_1" xmlns="http://www.w3.org/2000/svg" xmlns:xlink="http://www.w3.org/1999/xlink" x="0px" y="0px"
	 viewBox="0 0 200 200" style="enable-background:new 0 0 200 200;" xml:space="preserve">
<style type="text/css">
	.st0{fill:none;stroke:#9F42F5;stroke-width:3.2177;stroke-miterlimit:10;}
	.st1{fill:none;stroke:#1499DB;stroke-width:2.5742;stroke-miterlimit:10;}
	.st2{fill:none;stroke:#9F42F5;stroke-width:3.2102;stroke-miterlimit:10;}
	.st3{fill:none;stroke:#1499DB;stroke-width:2.5682;stroke-miterlimit:10;}
	.st4{fill:#042354;}
	.st5{fill:none;stroke:#9F42F5;stroke-width:3.2219;stroke-miterlimit:10;}
	.st6{fill:none;stroke:#1499DB;stroke-width:2.5775;stroke-miterlimit:10;}
	.st7{fill:none;}
</style>
<circle class="st1" cx="100.41" cy="100.51" r="90.37"/>
<circle class="st0" cx="100.41" cy="100.51" r="98"/>
<path class="st7" d="M115.22,92.95H85.6c-0.24,0-0.38,0.08-0.4,0.1l-9.01,11.8h48.44l-9.03-11.82
	C115.61,93.03,115.47,92.95,115.22,92.95z"/>
<path class="st7" d="M81.26,63.55c-0.94,0-1.7,0.76-1.7,1.7v7.69c0,0.94,0.76,1.7,1.7,1.7c0.94,0,1.7-0.76,1.7-1.7v-7.69
	C82.96,64.31,82.2,63.55,81.26,63.55z"/>
<polygon class="st7" points="112.61,114.31 88,114.31 89.8,133.38 110.37,133.38 "/>
<polygon class="st7" points="90.27,138.35 109.78,138.35 110,136.47 90.09,136.47 "/>
<polygon class="st7" points="85.77,133.38 83.25,110.98 117.49,110.98 114.34,133.38 117.04,133.38 122.72,107.95 78.02,107.95 
	82.56,133.38 "/>
<path class="st7" d="M86.7,141.68l-0.59-5.21H81.9c-4.71,4.76-7.3,11.01-7.3,17.67c0,2.56,2.09,4.65,4.65,4.65h41.05
	c2.56,0,4.65-2.09,4.65-4.65c0-6.66-2.59-12.91-7.3-17.67h-3.75l-0.73,5.21H86.7z"/>
<path class="st7" d="M94.81,66.81c0-0.52-0.44-0.95-0.95-0.95s-0.95,0.44-0.95,0.95s0.44,0.95,0.95,0.95S94.81,67.33,94.81,66.81z"
	/>
<path class="st7" d="M106.96,65.86c-0.52,0-0.95,0.44-0.95,0.95s0.44,0.95,0.95,0.95s0.95-0.44,0.95-0.95S107.48,65.86,106.96,65.86
	z"/>
<path class="st7" d="M119.56,74.64c0.94,0,1.7-0.76,1.7-1.7v-7.69c0-0.94-0.76-1.7-1.7-1.7s-1.7,0.76-1.7,1.7v7.69
	C117.86,73.88,118.62,74.64,119.56,74.64z"/>
<path class="st7" d="M122.91,42.23H77.9l7.29,10.8c0.14-0.18,0.28-0.36,0.42-0.53c0.03-0.03,0.06-0.07,0.09-0.1
	c0.13-0.16,0.27-0.31,0.41-0.46c0.06-0.06,0.12-0.12,0.18-0.18c0.12-0.12,0.24-0.23,0.36-0.35c0.07-0.06,0.13-0.12,0.2-0.18
	c0.13-0.11,0.27-0.22,0.4-0.33c0.06-0.05,0.12-0.09,0.18-0.14c0.2-0.15,0.4-0.29,0.6-0.43c0.03-0.02,0.06-0.04,0.09-0.05
	c0.18-0.12,0.36-0.23,0.55-0.33c0.07-0.04,0.15-0.08,0.22-0.12c0.15-0.08,0.3-0.16,0.45-0.23c0.08-0.04,0.16-0.08,0.24-0.11
	c0.16-0.07,0.32-0.14,0.48-0.2c0.07-0.03,0.14-0.06,0.21-0.09c0.23-0.09,0.47-0.17,0.71-0.24c0.02-0.01,0.03-0.01,0.05-0.01
	c0.22-0.07,0.45-0.12,0.67-0.18c0.08-0.02,0.16-0.03,0.24-0.05c0.17-0.04,0.34-0.07,0.51-0.1c0.09-0.01,0.18-0.03,0.26-0.04
	c0.18-0.02,0.35-0.04,0.53-0.06c0.08-0.01,0.16-0.02,0.24-0.02c0.26-0.02,0.51-0.03,0.77-0.03h12.31c0.26,0,0.51,0.01,0.77,0.03
	c0.08,0.01,0.16,0.01,0.24,0.02c0.18,0.02,0.35,0.03,0.53,0.06c0.09,0.01,0.18,0.03,0.26,0.04c0.17,0.03,0.34,0.06,0.51,0.1
	c0.08,0.02,0.16,0.03,0.24,0.05c0.23,0.05,0.46,0.11,0.68,0.18c0.02,0,0.03,0.01,0.05,0.01c0.24,0.07,0.47,0.15,0.71,0.24
	c0.07,0.03,0.14,0.06,0.21,0.08c0.16,0.07,0.33,0.13,0.49,0.21c0.08,0.04,0.16,0.07,0.23,0.11c0.15,0.07,0.31,0.15,0.46,0.24
	c0.07,0.04,0.14,0.07,0.21,0.11c0.19,0.11,0.38,0.22,0.57,0.34c0.02,0.01,0.05,0.03,0.07,0.04c0.21,0.14,0.41,0.28,0.61,0.43
	c0.06,0.04,0.11,0.09,0.17,0.13c0.14,0.11,0.28,0.22,0.41,0.34c0.07,0.06,0.13,0.11,0.19,0.17c0.13,0.11,0.25,0.23,0.37,0.35
	c0.06,0.06,0.12,0.12,0.17,0.17c0.14,0.15,0.29,0.31,0.42,0.47c0.03,0.03,0.05,0.06,0.08,0.09c0.15,0.17,0.29,0.35,0.42,0.53
	L122.91,42.23z"/>
<path class="st7" d="M114.76,59.78c0-1.12-0.23-2.21-0.67-3.24c-1.3-3.01-4.25-4.95-7.53-4.95H94.25c-3.27,0-6.23,1.94-7.53,4.95
	c-0.44,1.03-0.67,2.12-0.67,3.24v5.47v7.69v3.25c0,4.36,8.41,11.96,13.24,11.96h2.22c4.83,0,13.24-7.6,13.24-11.96v-3.25v-7.69
	V59.78z M89.8,66.81c0-2.24,1.82-4.05,4.05-4.05c2.24,0,4.05,1.82,4.05,4.05c0,2.24-1.82,4.05-4.05,4.05
	C91.62,70.87,89.8,69.05,89.8,66.81z M106.64,78.25c-1.99,1.99-4.1,2.99-6.28,2.99c-0.13,0-0.27,0-0.4-0.01
	c-3.52-0.2-5.79-2.99-5.88-3.11c-0.53-0.67-0.42-1.64,0.24-2.18c0.67-0.53,1.64-0.42,2.17,0.24c0.03,0.04,1.55,1.85,3.66,1.95
	c1.39,0.07,2.85-0.63,4.3-2.08c0.61-0.61,1.59-0.61,2.19,0C107.24,76.67,107.24,77.65,106.64,78.25z M106.96,70.87
	c-2.24,0-4.05-1.82-4.05-4.05c0-2.24,1.82-4.05,4.05-4.05c2.24,0,4.05,1.82,4.05,4.05C111.02,69.05,109.2,70.87,106.96,70.87z"/>
<path class="st4" d="M74.19,107.41c0.2,0.12,0.41,0.22,0.64,0.3l-0.16-0.91L74.19,107.41z"/>
<path class="st4" d="M75.51,103.22c0.51,0.4,0.7,1.05,0.54,1.63h0.14l9.01-11.8c0.02-0.02,0.17-0.1,0.4-0.1h29.62
	c0.26,0,0.39,0.08,0.38,0.08l9.03,11.82h0.14c-0.16-0.58,0.03-1.23,0.54-1.63c0.67-0.53,1.65-0.41,2.18,0.26l0,0l-9.42-12.33
	c-0.62-0.81-1.68-1.3-2.85-1.3h-8.69c-1.78,0.87-3.52,1.39-5.01,1.39H99.3c-1.49,0-3.23-0.52-5.01-1.39H85.6
	c-1.16,0-2.23,0.48-2.85,1.3l-9.42,12.34l0.01-0.01C73.86,102.81,74.84,102.69,75.51,103.22z"/>
<path class="st4" d="M125.94,107.73c0.25-0.08,0.48-0.19,0.69-0.32l-0.48-0.61L125.94,107.73z"/>
<path class="st4" d="M85.61,52.5c-0.15,0.17-0.29,0.35-0.42,0.53l-7.29-10.8h45.01l-7.29,10.8c-0.14-0.18-0.28-0.36-0.42-0.53
	c0.7,0.83,1.29,1.77,1.73,2.8c0.12,0.28,0.22,0.57,0.32,0.86l8.46-12.55v0c0.58-0.86,0.64-1.91,0.16-2.82
	c-0.55-1.03-1.67-1.66-2.94-1.66H77.88c-1.27,0-2.4,0.64-2.94,1.67c-0.48,0.9-0.42,1.96,0.16,2.82l8.46,12.55
	c0.1-0.29,0.2-0.58,0.32-0.86C84.33,54.27,84.91,53.33,85.61,52.5z M123.15,41.88L123.15,41.88L123.15,41.88z"/>
<path class="st4" d="M117.75,77.38c-1.75-0.72-2.99-2.44-2.99-4.44v3.25c0,4.36-8.41,11.96-13.24,11.96H99.3
	c-4.83,0-13.24-7.6-13.24-11.96v-3.25c0,2.01-1.24,3.73-2.99,4.44c0.82,4.66,6.18,10,11.22,12.47h12.24
	C111.57,87.38,116.93,82.04,117.75,77.38z"/>
<path class="st4" d="M116.65,56.97l-1.62,1.69l-0.95-2.13c0.44,1.03,0.67,2.12,0.67,3.24v5.47c0-2.05,1.29-3.79,3.1-4.48v-0.99
	c0-1.24-0.21-2.45-0.6-3.61l-0.3,0.44C116.84,56.78,116.72,56.9,116.65,56.97z"/>
<path class="st4" d="M86.06,65.25v-5.47c0-1.12,0.23-2.21,0.67-3.24l-0.92,2.14l-1.62-1.68c-0.09-0.08-0.21-0.21-0.33-0.38
	l-0.3-0.44c-0.39,1.16-0.6,2.37-0.6,3.61v0.99C84.77,61.45,86.06,63.2,86.06,65.25z"/>
<path class="st4" d="M101.52,91.24c1.49,0,3.23-0.52,5.01-1.39H94.29c1.78,0.87,3.52,1.39,5.01,1.39H101.52z"/>
<path class="st4" d="M84.19,56.99l1.62,1.68l0.92-2.14c1.3-3.01,4.25-4.95,7.53-4.95h12.31c3.27,0,6.23,1.94,7.53,4.95l0.95,2.13
	l1.62-1.69c0.07-0.07,0.19-0.19,0.31-0.36l0.3-0.44c-0.1-0.29-0.2-0.58-0.32-0.86c-0.44-1.03-1.03-1.97-1.73-2.8
	c-0.03-0.03-0.05-0.06-0.08-0.09c-0.14-0.16-0.28-0.31-0.42-0.47c-0.06-0.06-0.12-0.12-0.17-0.17c-0.12-0.12-0.24-0.24-0.37-0.35
	c-0.06-0.06-0.13-0.12-0.19-0.17c-0.13-0.12-0.27-0.23-0.41-0.34c-0.06-0.04-0.11-0.09-0.17-0.13c-0.2-0.15-0.4-0.29-0.61-0.43
	c-0.02-0.01-0.05-0.03-0.07-0.04c-0.19-0.12-0.37-0.23-0.57-0.34c-0.07-0.04-0.14-0.08-0.21-0.11c-0.15-0.08-0.3-0.16-0.46-0.24
	c-0.08-0.04-0.16-0.07-0.23-0.11c-0.16-0.07-0.32-0.14-0.49-0.21c-0.07-0.03-0.14-0.06-0.21-0.08c-0.23-0.09-0.47-0.17-0.71-0.24
	c-0.02,0-0.03-0.01-0.05-0.01c-0.22-0.07-0.45-0.13-0.68-0.18c-0.08-0.02-0.16-0.03-0.24-0.05c-0.17-0.04-0.34-0.07-0.51-0.1
	c-0.09-0.01-0.18-0.03-0.26-0.04c-0.18-0.02-0.35-0.04-0.53-0.06c-0.08-0.01-0.16-0.02-0.24-0.02c-0.26-0.02-0.51-0.03-0.77-0.03
	H94.25c-0.26,0-0.51,0.01-0.77,0.03c-0.08,0.01-0.16,0.01-0.24,0.02c-0.18,0.02-0.35,0.03-0.53,0.06c-0.09,0.01-0.18,0.03-0.26,0.04
	c-0.17,0.03-0.34,0.06-0.51,0.1c-0.08,0.02-0.16,0.03-0.24,0.05c-0.23,0.05-0.45,0.11-0.67,0.18c-0.02,0.01-0.03,0.01-0.05,0.01
	c-0.24,0.07-0.47,0.15-0.71,0.24c-0.07,0.03-0.14,0.06-0.21,0.09c-0.16,0.06-0.32,0.13-0.48,0.2c-0.08,0.04-0.16,0.07-0.24,0.11
	c-0.15,0.07-0.3,0.15-0.45,0.23c-0.07,0.04-0.15,0.08-0.22,0.12c-0.19,0.11-0.37,0.22-0.55,0.33c-0.03,0.02-0.06,0.04-0.09,0.05
	c-0.21,0.14-0.41,0.28-0.6,0.43c-0.06,0.05-0.12,0.09-0.18,0.14c-0.14,0.11-0.27,0.22-0.4,0.33c-0.07,0.06-0.13,0.12-0.2,0.18
	c-0.12,0.11-0.24,0.23-0.36,0.35c-0.06,0.06-0.12,0.12-0.18,0.18c-0.14,0.15-0.28,0.3-0.41,0.46c-0.03,0.03-0.06,0.06-0.09,0.1
	c-0.7,0.83-1.28,1.77-1.73,2.8c-0.12,0.28-0.22,0.57-0.32,0.86l0.3,0.44C83.98,56.78,84.1,56.91,84.19,56.99z"/>
<path class="st4" d="M82.96,72.94c0,0.94-0.76,1.7-1.7,1.7c-0.94,0-1.7-0.76-1.7-1.7v-7.69c0-0.94,0.76-1.7,1.7-1.7
	c0.94,0,1.7,0.76,1.7,1.7v-4.48c-0.53-0.2-1.1-0.32-1.7-0.32c-2.65,0-4.8,2.15-4.8,4.8v7.69c0,2.65,2.15,4.8,4.8,4.8
	c0.64,0,1.25-0.13,1.81-0.36c-0.07-0.4-0.11-0.8-0.11-1.19V72.94z"/>
<path class="st4" d="M86.06,72.94v-7.69c0-2.05-1.29-3.79-3.1-4.48v4.48v7.69v3.25c0,0.39,0.04,0.79,0.11,1.19
	C84.82,76.66,86.06,74.95,86.06,72.94z"/>
<path class="st4" d="M119.56,63.55c0.94,0,1.7,0.76,1.7,1.7v7.69c0,0.94-0.76,1.7-1.7,1.7s-1.7-0.76-1.7-1.7v3.25
	c0,0.39-0.04,0.79-0.11,1.19c0.56,0.23,1.17,0.36,1.81,0.36c2.65,0,4.8-2.15,4.8-4.8v-7.69c0-2.65-2.15-4.8-4.8-4.8
	c-0.6,0-1.17,0.12-1.7,0.32v4.48C117.86,64.31,118.62,63.55,119.56,63.55z"/>
<path class="st4" d="M114.76,65.25v7.69c0,2.01,1.24,3.73,2.99,4.44c0.07-0.4,0.11-0.8,0.11-1.19v-3.25v-7.69v-4.48
	C116.05,61.45,114.76,63.2,114.76,65.25z"/>
<path class="st4" d="M117.65,136.47c4.71,4.76,7.3,11.01,7.3,17.67c0,2.56-2.09,4.65-4.65,4.65H79.25c-2.56,0-4.65-2.09-4.65-4.65
	c0-6.66,2.59-12.91,7.3-17.67h-1.93l-0.37-2.07c-5.22,5.33-8.09,12.3-8.09,19.74c0,4.27,3.48,7.75,7.75,7.75h41.05
	c4.27,0,7.75-3.48,7.75-7.75c0-7.42-2.86-14.38-8.06-19.7l-0.45,2.03H117.65z"/>
<path class="st4" d="M122.72,107.95l-5.67,25.42h1.86l0.45,0.43c0.21,0.21,0.42,0.42,0.62,0.63l5.96-26.71
	c-0.4,0.14-0.84,0.22-1.29,0.22H122.72z"/>
<path class="st4" d="M80.63,133.38h1.92l-4.54-25.42h-1.85c-0.47,0-0.92-0.09-1.34-0.24l4.77,26.69c0.2-0.2,0.39-0.4,0.59-0.6
	L80.63,133.38z"/>
<path class="st4" d="M125.05,105.4c-0.13-0.17-0.22-0.35-0.28-0.54h-0.14H76.19h-0.14c-0.05,0.19-0.14,0.38-0.28,0.54l-1.11,1.41
	l0.16,0.91c0.42,0.15,0.87,0.24,1.34,0.24h1.85h44.7h1.93c0.45,0,0.89-0.08,1.29-0.22l0.21-0.93L125.05,105.4z"/>
<path class="st4" d="M81.9,136.47h4.22l-0.35-3.1h-3.21h-1.92l-0.45,0.43c-0.2,0.2-0.39,0.4-0.59,0.6l0.37,2.07H81.9z"/>
<path class="st4" d="M118.91,133.38h-1.86h-2.71l-0.44,3.1h3.75h1.88l0.45-2.03c-0.21-0.21-0.41-0.42-0.62-0.63L118.91,133.38z"/>
<path class="st4" d="M73.04,106.2c-0.44-0.89-0.33-1.9,0.28-2.71l0.01-0.01l-12.08,15.36c-0.19,0.24-0.3,0.53-0.33,0.83l-1.68,19.99
	c-0.07,0.85,0.56,1.6,1.41,1.67c0.04,0,0.09,0.01,0.13,0.01c0.8,0,1.47-0.61,1.54-1.42l0.56-6.61l-2.31-2.05
	c-0.64-0.57-0.7-1.55-0.13-2.19c0.57-0.64,1.55-0.7,2.19-0.13l0.58,0.52l0.76-9.07l10.22-12.99
	C73.69,107.11,73.29,106.7,73.04,106.2z"/>
<path class="st4" d="M74.32,104.85h1.73c0.16-0.58-0.03-1.23-0.54-1.63c-0.67-0.53-1.65-0.41-2.18,0.26l-0.01,0.01l-0.01,0.01
	c-0.61,0.81-0.72,1.82-0.28,2.71c0.25,0.5,0.65,0.91,1.15,1.21l0.48-0.61L74.32,104.85z"/>
<path class="st4" d="M74.67,106.8l1.11-1.41c0.13-0.17,0.22-0.35,0.28-0.54h-1.73L74.67,106.8z"/>
<path class="st4" d="M64.4,134.66c0.29,0.26,0.66,0.39,1.03,0.39c0.43,0,0.86-0.18,1.16-0.52c0.57-0.64,0.51-1.62-0.13-2.19
	l-3.24-2.87l-0.32,3.85L64.4,134.66z"/>
<path class="st4" d="M60.44,129.08c-0.57,0.64-0.51,1.62,0.13,2.19l2.31,2.05l0.32-3.85l-0.58-0.52
	C61.99,128.38,61.01,128.44,60.44,129.08z"/>
<path class="st4" d="M139.9,119.68c-0.03-0.3-0.14-0.59-0.33-0.83l-12.09-15.37l0.01,0.02c0.62,0.81,0.72,1.82,0.28,2.71
	c-0.25,0.5-0.65,0.91-1.15,1.21l10.22,12.99l0.76,9.07l0.58-0.52c0.64-0.57,1.62-0.51,2.19,0.13c0.57,0.64,0.51,1.62-0.13,2.19
	l-2.31,2.05l0.56,6.61c0.07,0.81,0.75,1.42,1.54,1.42c0.04,0,0.09,0,0.13-0.01c0.85-0.07,1.49-0.82,1.41-1.67L139.9,119.68z"/>
<path class="st4" d="M127.78,106.2c0.44-0.89,0.33-1.9-0.28-2.71l-0.01-0.02l0,0c-0.53-0.67-1.5-0.79-2.18-0.26
	c-0.51,0.4-0.7,1.05-0.54,1.63h1.81l-0.43,1.95l0.48,0.61C127.13,107.11,127.53,106.7,127.78,106.2z"/>
<path class="st4" d="M126.15,106.8l0.43-1.95h-1.81c0.05,0.19,0.14,0.38,0.28,0.54L126.15,106.8z"/>
<path class="st4" d="M134.36,132.34c-0.64,0.57-0.7,1.55-0.13,2.19c0.31,0.35,0.73,0.52,1.16,0.52c0.37,0,0.73-0.13,1.03-0.39
	l1.51-1.34l-0.32-3.85L134.36,132.34z"/>
<path class="st4" d="M140.38,129.08c-0.57-0.64-1.55-0.7-2.19-0.13l-0.58,0.52l0.32,3.85l2.31-2.05
	C140.89,130.7,140.95,129.73,140.38,129.08z"/>
<path class="st4" d="M97.91,66.81c0-2.24-1.82-4.05-4.05-4.05c-2.24,0-4.05,1.82-4.05,4.05c0,2.24,1.82,4.05,4.05,4.05
	C96.09,70.87,97.91,69.05,97.91,66.81z M92.9,66.81c0-0.52,0.44-0.95,0.95-0.95s0.95,0.44,0.95,0.95s-0.44,0.95-0.95,0.95
	S92.9,67.33,92.9,66.81z"/>
<path class="st4" d="M106.96,62.76c-2.24,0-4.05,1.82-4.05,4.05c0,2.24,1.82,4.05,4.05,4.05c2.24,0,4.05-1.82,4.05-4.05
	C111.02,64.58,109.2,62.76,106.96,62.76z M106.96,67.77c-0.52,0-0.95-0.44-0.95-0.95s0.44-0.95,0.95-0.95s0.95,0.44,0.95,0.95
	S107.48,67.77,106.96,67.77z"/>
<path class="st4" d="M104.44,76.06c-1.45,1.45-2.91,2.15-4.3,2.08c-2.12-0.11-3.63-1.92-3.66-1.95c-0.53-0.66-1.51-0.77-2.17-0.24
	c-0.67,0.53-0.78,1.51-0.24,2.18c0.09,0.12,2.36,2.91,5.88,3.11c0.13,0.01,0.27,0.01,0.4,0.01c2.19,0,4.3-1,6.28-2.99
	c0.61-0.6,0.61-1.59,0-2.19C106.03,75.46,105.05,75.46,104.44,76.06z"/>
<polygon class="st4" points="83.25,110.98 85.77,133.38 89.8,133.38 88,114.31 112.61,114.31 110.37,133.38 114.34,133.38 
	117.49,110.98 "/>
<polygon class="st4" points="109.78,138.35 90.27,138.35 90.09,136.47 86.12,136.47 86.7,141.68 113.17,141.68 113.9,136.47 
	110,136.47 "/>
<polygon class="st4" points="89.8,133.38 85.77,133.38 86.12,136.47 90.09,136.47 "/>
<polygon class="st4" points="110,136.47 113.9,136.47 114.34,133.38 110.37,133.38 "/>
<path class="st4" d="M92.88,126.07c-0.45,0-0.85-0.31-0.94-0.77l-1.77-8.65c-0.11-0.52,0.23-1.03,0.75-1.14
	c0.52-0.11,1.03,0.23,1.14,0.75l1.77,8.65c0.11,0.52-0.23,1.03-0.75,1.14C93.01,126.07,92.94,126.07,92.88,126.07z"/>
<path class="st4" d="M95.27,124.95c-0.45,0-0.85-0.31-0.94-0.77l-1.23-6.01c-0.11-0.52,0.23-1.03,0.75-1.14
	c0.52-0.11,1.03,0.23,1.14,0.75l1.23,6.01c0.11,0.52-0.23,1.03-0.75,1.14C95.4,124.94,95.34,124.95,95.27,124.95z"/>
</svg>
