<?xml version="1.0" encoding="utf-8"?>
<!-- Generator: Adobe Illustrator 24.0.0, SVG Export Plug-In . SVG Version: 6.00 Build 0)  -->
<svg version="1.1" id="Capa_1" xmlns="http://www.w3.org/2000/svg" xmlns:xlink="http://www.w3.org/1999/xlink" x="0px" y="0px"
	 viewBox="0 0 200 200" style="enable-background:new 0 0 200 200;" xml:space="preserve">
<style type="text/css">
	.st0{fill:none;stroke:#9F42F5;stroke-width:3.2177;stroke-miterlimit:10;}
	.st1{fill:none;stroke:#1499DB;stroke-width:2.5742;stroke-miterlimit:10;}
	.st2{fill:none;stroke:#9F42F5;stroke-width:3.2102;stroke-miterlimit:10;}
	.st3{fill:none;stroke:#1499DB;stroke-width:2.5682;stroke-miterlimit:10;}
	.st4{fill:#042354;}
	.st5{fill:none;stroke:#9F42F5;stroke-width:3.2219;stroke-miterlimit:10;}
	.st6{fill:none;stroke:#1499DB;stroke-width:2.5775;stroke-miterlimit:10;}
	.st7{fill:none;}
</style>
<circle class="st2" cx="99.54" cy="99.51" r="97.77"/>
<circle class="st3" cx="99.54" cy="99.51" r="90.16"/>
<g>
	<g>
		<path class="st4" d="M97.51,142.54c-13.61,0-27.22,0-40.83,0c-2.75,0-3.78-1.03-3.78-3.79c0-17.05,0.01-34.09-0.02-51.14
			c0-1.6,0.6-2.65,1.98-3.51c4-2.48,7.92-5.1,11.9-7.63c0.53-0.34,0.55-0.75,0.55-1.26c-0.01-5.9-0.01-11.8,0-17.7
			c0-3.38,1.97-5.36,5.34-5.36c16.55,0,33.09,0,49.64,0c3.37,0,5.33,1.98,5.34,5.36c0,5.9,0.01,11.8-0.01,17.7
			c0,0.63,0.17,1.01,0.72,1.36c4.08,2.59,8.14,5.23,12.21,7.83c0.95,0.61,1.41,1.46,1.48,2.55c0.01,0.19,0.01,0.37,0.01,0.56
			c0,17.14,0,34.28-0.01,51.42c0,0.61-0.03,1.28-0.28,1.83c-0.47,1.06-1.34,1.71-2.56,1.76c-0.75,0.03-1.5,0.02-2.25,0.02
			C123.79,142.54,110.65,142.54,97.51,142.54z M97.47,55.13c-8.21,0-16.42,0-24.63,0c-1.96,0-2.57,0.62-2.57,2.58
			c0,11.8,0.03,23.6-0.04,35.4c-0.01,1.41,0.33,2.3,1.63,2.83c0.45,0.18,0.86,0.5,1.28,0.76c7.69,4.69,15.39,9.37,23.07,14.09
			c0.89,0.55,1.57,0.56,2.47,0.01c8.31-5.11,16.65-10.18,24.99-15.23c0.69-0.42,0.99-0.84,0.99-1.68
			c-0.03-12.08-0.02-24.16-0.02-36.24c0-1.88-0.64-2.51-2.55-2.51C113.89,55.13,105.68,55.13,97.47,55.13z M58.18,139.29
			c0.05,0.07,0.09,0.13,0.14,0.2c26.1,0,52.21,0,78.54,0c-10.09-10.16-20.03-20.18-29.98-30.21c-2.38,1.45-4.68,2.83-6.95,4.25
			c-1.65,1.03-3.27,1.04-4.93,0.01c-1.96-1.22-3.95-2.39-5.9-3.63c-0.66-0.42-1.07-0.41-1.65,0.17
			c-7.88,7.92-15.78,15.82-23.69,23.72C61.92,135.64,60.05,137.46,58.18,139.29z M85.41,107.68c-9.75-5.94-19.55-11.91-29.45-17.94
			c0,15.93,0,31.68,0,47.4C65.78,127.31,75.57,117.52,85.41,107.68z M138.99,137.37c0-16,0-31.73,0-47.65
			c-9.88,6.02-19.63,11.96-29.47,17.96C119.35,117.59,129.08,127.39,138.99,137.37z M57.68,87.04c-0.03,0.06-0.05,0.12-0.08,0.18
			c3.17,1.93,6.34,3.86,9.64,5.88c0-2.12,0-4.06,0-6.06C64.01,87.04,60.85,87.04,57.68,87.04z M137.33,87.22
			c-0.03-0.06-0.06-0.12-0.09-0.18c-3.17,0-6.33,0-9.55,0c0,2,0,3.94,0,6.05C130.99,91.09,134.16,89.16,137.33,87.22z M60.98,83.75
			c0.02,0.08,0.04,0.16,0.06,0.24c1.94,0,3.88,0.01,5.82-0.02c0.14,0,0.4-0.25,0.41-0.38c0.03-1.22,0.02-2.45,0.02-3.9
			C65.05,81.13,63.02,82.44,60.98,83.75z M127.7,79.72c0,1.54,0,2.85,0,4.18c2.11,0,4.15,0,6.18,0c0.01-0.06,0.02-0.11,0.04-0.17
			C131.9,82.43,129.87,81.12,127.7,79.72z"/>
		<path class="st4" d="M101.36,84.88c-0.56,0.74-0.95,1.29-1.38,1.81c-1.62,1.95-3.71,2.94-6.23,2.86
			c-3.08-0.11-5.22-2.51-5.41-5.96c-0.39-7.15,5.73-13.22,12.87-12.74c1.15,0.08,2.29,0.28,3.41,0.53c1.2,0.27,1.43,0.7,1.2,1.89
			c-0.52,2.76-1.08,5.51-1.54,8.28c-0.19,1.1-0.29,2.24-0.23,3.35c0.11,1.92,1.44,2.68,3.21,1.93c1.27-0.53,2.1-1.54,2.77-2.69
			c2.57-4.38,1.86-11.82-1.51-15.61c-2.7-3.03-6.22-4.09-10.13-3.89c-7.92,0.42-13.8,6.11-14.82,14.18
			c-0.4,3.15-0.32,6.25,0.93,9.21c2.03,4.84,5.79,7.37,10.96,7.83c2.67,0.24,5.3-0.1,7.81-1.12c0.7-0.29,1.31-0.25,1.66,0.49
			c0.37,0.77-0.04,1.29-0.71,1.57c-6.74,2.83-16.99,2.32-21.7-6.31c-2.6-4.77-2.58-9.84-1.01-14.9c2.67-8.6,9.95-13.7,18.95-13.22
			c8.99,0.48,14.42,7.32,13.93,15.96c-0.17,3.02-0.93,5.86-2.94,8.22c-1.43,1.68-3.22,2.73-5.45,2.95
			c-2.78,0.27-4.38-1.09-4.57-3.91C101.43,85.44,101.4,85.29,101.36,84.88z M100.09,73.47c-0.44,0.03-0.88,0.03-1.3,0.11
			c-4.85,0.86-7.57,5.92-7.07,10.04c0.32,2.62,3.07,3.97,5.36,2.66c0.84-0.48,1.61-1.19,2.25-1.93c2.36-2.74,2.44-6.25,3.03-9.57
			c0.11-0.63-0.34-1.06-0.96-1.19C100.97,73.51,100.53,73.51,100.09,73.47z"/>
	</g>
</g>
</svg>
