<?xml version="1.0" encoding="utf-8"?>
<!-- Generator: Adobe Illustrator 24.0.0, SVG Export Plug-In . SVG Version: 6.00 Build 0)  -->
<svg version="1.1" id="Capa_1" xmlns="http://www.w3.org/2000/svg" xmlns:xlink="http://www.w3.org/1999/xlink" x="0px" y="0px"
	 viewBox="0 0 200 200" style="enable-background:new 0 0 200 200;" xml:space="preserve">
<style type="text/css">
	.st0{fill:none;stroke:#9F42F5;stroke-width:3.2177;stroke-miterlimit:10;}
	.st1{fill:none;stroke:#1499DB;stroke-width:2.5742;stroke-miterlimit:10;}
	.st2{fill:none;stroke:#9F42F5;stroke-width:3.2102;stroke-miterlimit:10;}
	.st3{fill:none;stroke:#1499DB;stroke-width:2.5682;stroke-miterlimit:10;}
	.st4{fill:#042354;}
	.st5{fill:none;stroke:#9F42F5;stroke-width:3.2219;stroke-miterlimit:10;}
	.st6{fill:none;stroke:#1499DB;stroke-width:2.5775;stroke-miterlimit:10;}
	.st7{fill:none;}
</style>
<circle class="st0" cx="100.31" cy="100.51" r="98"/>
<circle class="st1" cx="100.31" cy="100.51" r="90.37"/>
<g>
	<g>
		<path class="st4" d="M79.53,46.8C69.46,46.68,61.08,55,61.02,65.15c-0.06,10.08,8.28,18.46,18.39,18.48
			c10.08,0.02,18.34-8.18,18.44-18.3C97.94,55.23,89.73,46.91,79.53,46.8z M79.34,79.55C71.46,79.47,65,72.92,65.12,65.12
			c0.12-7.93,6.64-14.36,14.42-14.23c7.95,0.14,14.29,6.57,14.22,14.42C93.7,73.18,87.17,79.62,79.34,79.55z"/>
	</g>
</g>
<g>
	<g>
		<path class="st4" d="M134.67,52.96c-7.92,0-14.31,6.37-14.3,14.28c0.01,7.93,6.37,14.3,14.28,14.3c7.92,0.01,14.3-6.36,14.3-14.28
			C148.95,59.34,142.59,52.97,134.67,52.96z M134.64,77.46c-5.6-0.01-10.2-4.62-10.19-10.21c0.01-5.59,4.64-10.21,10.22-10.2
			c5.6,0.02,10.2,4.63,10.18,10.22C144.84,72.89,140.25,77.47,134.64,77.46z"/>
	</g>
</g>
<g>
	<g>
		<path class="st4" d="M163.29,102.02c-0.01-3.3-0.79-6.42-2.52-9.23c-3.69-6.02-9.11-9.02-16.18-9.19
			c-1.82-0.04-3.2,0.41-4.42,1.79c-1.53,1.73-3.27,3.28-4.88,4.95c-0.5,0.53-0.78,0.55-1.31,0.01c-1.9-1.94-3.86-3.82-5.79-5.73
			c-0.52-0.52-1.07-0.94-1.85-0.98c-5.6-0.27-10.58,1.22-14.65,5.2c-0.66,0.65-0.99,0.54-1.62,0.01c-3.87-3.29-8.37-4.98-13.45-5.21
			c-1.17-0.05-2.05,0.32-2.87,1.14c-4.44,4.49-8.93,8.92-13.36,13.41c-0.72,0.73-1.11,0.87-1.91,0.05
			c-4.44-4.54-8.97-8.99-13.44-13.5c-0.79-0.8-1.64-1.13-2.77-1.1c-8.9,0.25-17.19,6.22-20.27,14.55c-0.65,1.75-0.85,3.6-1.44,5.36
			c0,9.91,0,19.81,0,29.72c0.69,2.03,1.83,3.65,3.87,4.55c10.16,4.49,20.3,9,30.45,13.51c3.05,1.36,6.08,1.34,9.13-0.02
			c10.11-4.5,20.22-8.99,30.33-13.48c2.6-1.16,3.93-3.14,3.93-6c0-1.02,0-2.03,0-3.17c0.49,0.18,0.82,0.3,1.15,0.42
			c4.27,1.65,8.54,3.29,12.8,4.97c1.57,0.62,3.14,0.68,4.67,0.08c7.46-2.87,14.92-5.77,22.36-8.7c2.65-1.04,4.01-3.07,4.03-5.92
			C163.31,113.68,163.3,107.85,163.29,102.02z M112.54,134.19c-10.08,4.47-20.15,8.94-30.23,13.43c-1.94,0.86-3.84,0.86-5.78-0.01
			c-10.07-4.49-20.14-8.96-30.22-13.43c-1.16-0.51-1.67-1.33-1.67-2.61c0.03-8.43-0.03-16.86,0.02-25.28
			c0.06-9.71,6.97-17.35,16.62-18.49c0.71-0.08,1.17,0.12,1.66,0.62c4.81,4.85,9.65,9.67,14.48,14.5c1.59,1.59,2.44,1.59,4.03,0
			c4.75-4.74,9.5-9.48,14.22-14.25c0.68-0.69,1.28-0.94,2.28-0.8c8.09,1.17,13.98,6.5,15.82,14.4c0.33,1.41,0.41,2.84,0.4,4.28
			c-0.01,3.91,0,7.83,0,11.74c0,4.43-0.03,8.87,0.02,13.3C114.22,132.89,113.69,133.68,112.54,134.19z M159.22,119.2
			c0.01,1.29-0.52,2.1-1.72,2.56c-7.27,2.81-14.54,5.63-21.81,8.46c-0.71,0.28-1.36,0.27-2.08-0.01c-4.82-1.88-9.64-3.75-14.47-5.59
			c-0.67-0.25-0.89-0.59-0.88-1.3c0.04-3.15,0.02-6.31,0.02-10.1c-0.14-2.95,0.23-6.54-0.23-10.12c-0.45-3.55-1.72-6.78-3.76-9.7
			c-0.46-0.66-0.45-1.02,0.13-1.57c2.96-2.8,6.46-4.14,10.52-4.11c0.56,0,0.87,0.29,1.21,0.63c2.16,2.13,4.32,4.26,6.48,6.39
			c1.6,1.57,2.47,1.58,4.04,0.02c2.15-2.14,4.3-4.28,6.43-6.45c0.39-0.39,0.78-0.58,1.35-0.58c8.21-0.09,14.67,6.15,14.75,14.37
			C159.25,107.78,159.19,113.49,159.22,119.2z"/>
	</g>
</g>
</svg>
